<?xml version="1.0" encoding="utf-8"?>
<svg xmlns="http://www.w3.org/2000/svg" xmlns:xlink="http://www.w3.org/1999/xlink" width="650" height="500" viewBox="0 0 2600 2000">
<defs>
  <clipPath id="clip810">
    <rect x="0" y="0" width="2600" height="2000"/>
  </clipPath>
</defs>
<path clip-path="url(#clip810)" d="M0 2000 L2600 2000 L2600 0 L0 0  Z" fill="#ffffff" fill-rule="evenodd" fill-opacity="1"/>
<defs>
  <clipPath id="clip811">
    <rect x="520" y="0" width="1821" height="1821"/>
  </clipPath>
</defs>
<path clip-path="url(#clip810)" d="M298.69 1759.31 L2505.51 1759.31 L2505.51 94.4882 L298.69 94.4882  Z" fill="#ffffff" fill-rule="evenodd" fill-opacity="1"/>
<defs>
  <clipPath id="clip812">
    <rect x="298" y="94" width="2208" height="1666"/>
  </clipPath>
</defs>
<polyline clip-path="url(#clip810)" style="stroke:#000000; stroke-linecap:round; stroke-linejoin:round; stroke-width:4; stroke-opacity:1; fill:none" points="298.69,1759.31 2505.51,1759.31 "/>
<polyline clip-path="url(#clip810)" style="stroke:#000000; stroke-linecap:round; stroke-linejoin:round; stroke-width:4; stroke-opacity:1; fill:none" points="361.147,1759.31 361.147,1740.41 "/>
<polyline clip-path="url(#clip810)" style="stroke:#000000; stroke-linecap:round; stroke-linejoin:round; stroke-width:4; stroke-opacity:1; fill:none" points="856.298,1759.31 856.298,1740.41 "/>
<polyline clip-path="url(#clip810)" style="stroke:#000000; stroke-linecap:round; stroke-linejoin:round; stroke-width:4; stroke-opacity:1; fill:none" points="1351.45,1759.31 1351.45,1740.41 "/>
<polyline clip-path="url(#clip810)" style="stroke:#000000; stroke-linecap:round; stroke-linejoin:round; stroke-width:4; stroke-opacity:1; fill:none" points="1846.6,1759.31 1846.6,1740.41 "/>
<polyline clip-path="url(#clip810)" style="stroke:#000000; stroke-linecap:round; stroke-linejoin:round; stroke-width:4; stroke-opacity:1; fill:none" points="2341.75,1759.31 2341.75,1740.41 "/>
<path clip-path="url(#clip810)" d="M361.147 1791.83 Q357.536 1791.83 355.707 1795.39 Q353.901 1798.93 353.901 1806.06 Q353.901 1813.17 355.707 1816.73 Q357.536 1820.28 361.147 1820.28 Q364.781 1820.28 366.587 1816.73 Q368.415 1813.17 368.415 1806.06 Q368.415 1798.93 366.587 1795.39 Q364.781 1791.83 361.147 1791.83 M361.147 1788.12 Q366.957 1788.12 370.012 1792.73 Q373.091 1797.31 373.091 1806.06 Q373.091 1814.79 370.012 1819.4 Q366.957 1823.98 361.147 1823.98 Q355.337 1823.98 352.258 1819.4 Q349.202 1814.79 349.202 1806.06 Q349.202 1797.31 352.258 1792.73 Q355.337 1788.12 361.147 1788.12 Z" fill="#000000" fill-rule="nonzero" fill-opacity="1" /><path clip-path="url(#clip810)" d="M830.986 1819.37 L838.625 1819.37 L838.625 1793.01 L830.315 1794.67 L830.315 1790.41 L838.579 1788.75 L843.254 1788.75 L843.254 1819.37 L850.893 1819.37 L850.893 1823.31 L830.986 1823.31 L830.986 1819.37 Z" fill="#000000" fill-rule="nonzero" fill-opacity="1" /><path clip-path="url(#clip810)" d="M870.338 1791.83 Q866.727 1791.83 864.898 1795.39 Q863.092 1798.93 863.092 1806.06 Q863.092 1813.17 864.898 1816.73 Q866.727 1820.28 870.338 1820.28 Q873.972 1820.28 875.777 1816.73 Q877.606 1813.17 877.606 1806.06 Q877.606 1798.93 875.777 1795.39 Q873.972 1791.83 870.338 1791.83 M870.338 1788.12 Q876.148 1788.12 879.203 1792.73 Q882.282 1797.31 882.282 1806.06 Q882.282 1814.79 879.203 1819.4 Q876.148 1823.98 870.338 1823.98 Q864.527 1823.98 861.449 1819.4 Q858.393 1814.79 858.393 1806.06 Q858.393 1797.31 861.449 1792.73 Q864.527 1788.12 870.338 1788.12 Z" fill="#000000" fill-rule="nonzero" fill-opacity="1" /><path clip-path="url(#clip810)" d="M1330.22 1819.37 L1346.54 1819.37 L1346.54 1823.31 L1324.6 1823.31 L1324.6 1819.37 Q1327.26 1816.62 1331.84 1811.99 Q1336.45 1807.34 1337.63 1805.99 Q1339.88 1803.47 1340.76 1801.73 Q1341.66 1799.97 1341.66 1798.29 Q1341.66 1795.53 1339.71 1793.79 Q1337.79 1792.06 1334.69 1792.06 Q1332.49 1792.06 1330.04 1792.82 Q1327.61 1793.59 1324.83 1795.14 L1324.83 1790.41 Q1327.65 1789.28 1330.11 1788.7 Q1332.56 1788.12 1334.6 1788.12 Q1339.97 1788.12 1343.16 1790.81 Q1346.36 1793.49 1346.36 1797.98 Q1346.36 1800.11 1345.55 1802.04 Q1344.76 1803.93 1342.65 1806.53 Q1342.07 1807.2 1338.97 1810.41 Q1335.87 1813.61 1330.22 1819.37 Z" fill="#000000" fill-rule="nonzero" fill-opacity="1" /><path clip-path="url(#clip810)" d="M1366.36 1791.83 Q1362.75 1791.83 1360.92 1795.39 Q1359.11 1798.93 1359.11 1806.06 Q1359.11 1813.17 1360.92 1816.73 Q1362.75 1820.28 1366.36 1820.28 Q1369.99 1820.28 1371.8 1816.73 Q1373.63 1813.17 1373.63 1806.06 Q1373.63 1798.93 1371.8 1795.39 Q1369.99 1791.83 1366.36 1791.83 M1366.36 1788.12 Q1372.17 1788.12 1375.22 1792.73 Q1378.3 1797.31 1378.3 1806.06 Q1378.3 1814.79 1375.22 1819.4 Q1372.17 1823.98 1366.36 1823.98 Q1360.55 1823.98 1357.47 1819.4 Q1354.41 1814.79 1354.41 1806.06 Q1354.41 1797.31 1357.47 1792.73 Q1360.55 1788.12 1366.36 1788.12 Z" fill="#000000" fill-rule="nonzero" fill-opacity="1" /><path clip-path="url(#clip810)" d="M1835.44 1804.67 Q1838.8 1805.39 1840.68 1807.66 Q1842.57 1809.93 1842.57 1813.26 Q1842.57 1818.38 1839.06 1821.18 Q1835.54 1823.98 1829.06 1823.98 Q1826.88 1823.98 1824.56 1823.54 Q1822.27 1823.12 1819.82 1822.27 L1819.82 1817.75 Q1821.76 1818.89 1824.08 1819.47 Q1826.39 1820.04 1828.92 1820.04 Q1833.31 1820.04 1835.61 1818.31 Q1837.92 1816.57 1837.92 1813.26 Q1837.92 1810.21 1835.77 1808.49 Q1833.64 1806.76 1829.82 1806.76 L1825.79 1806.76 L1825.79 1802.91 L1830 1802.91 Q1833.45 1802.91 1835.28 1801.55 Q1837.11 1800.16 1837.11 1797.57 Q1837.11 1794.91 1835.21 1793.49 Q1833.34 1792.06 1829.82 1792.06 Q1827.9 1792.06 1825.7 1792.47 Q1823.5 1792.89 1820.86 1793.77 L1820.86 1789.6 Q1823.52 1788.86 1825.84 1788.49 Q1828.18 1788.12 1830.24 1788.12 Q1835.56 1788.12 1838.66 1790.55 Q1841.76 1792.96 1841.76 1797.08 Q1841.76 1799.95 1840.12 1801.94 Q1838.48 1803.91 1835.44 1804.67 Z" fill="#000000" fill-rule="nonzero" fill-opacity="1" /><path clip-path="url(#clip810)" d="M1861.44 1791.83 Q1857.83 1791.83 1856 1795.39 Q1854.19 1798.93 1854.19 1806.06 Q1854.19 1813.17 1856 1816.73 Q1857.83 1820.28 1861.44 1820.28 Q1865.07 1820.28 1866.88 1816.73 Q1868.71 1813.17 1868.71 1806.06 Q1868.71 1798.93 1866.88 1795.39 Q1865.07 1791.83 1861.44 1791.83 M1861.44 1788.12 Q1867.25 1788.12 1870.31 1792.73 Q1873.38 1797.31 1873.38 1806.06 Q1873.38 1814.79 1870.31 1819.4 Q1867.25 1823.98 1861.44 1823.98 Q1855.63 1823.98 1852.55 1819.4 Q1849.5 1814.79 1849.5 1806.06 Q1849.5 1797.31 1852.55 1792.73 Q1855.63 1788.12 1861.44 1788.12 Z" fill="#000000" fill-rule="nonzero" fill-opacity="1" /><path clip-path="url(#clip810)" d="M2329.92 1792.82 L2318.12 1811.27 L2329.92 1811.27 L2329.92 1792.82 M2328.7 1788.75 L2334.58 1788.75 L2334.58 1811.27 L2339.51 1811.27 L2339.51 1815.16 L2334.58 1815.16 L2334.58 1823.31 L2329.92 1823.31 L2329.92 1815.16 L2314.32 1815.16 L2314.32 1810.65 L2328.7 1788.75 Z" fill="#000000" fill-rule="nonzero" fill-opacity="1" /><path clip-path="url(#clip810)" d="M2357.24 1791.83 Q2353.63 1791.83 2351.8 1795.39 Q2349.99 1798.93 2349.99 1806.06 Q2349.99 1813.17 2351.8 1816.73 Q2353.63 1820.28 2357.24 1820.28 Q2360.87 1820.28 2362.68 1816.73 Q2364.51 1813.17 2364.51 1806.06 Q2364.51 1798.93 2362.68 1795.39 Q2360.87 1791.83 2357.24 1791.83 M2357.24 1788.12 Q2363.05 1788.12 2366.1 1792.73 Q2369.18 1797.31 2369.18 1806.06 Q2369.18 1814.79 2366.1 1819.4 Q2363.05 1823.98 2357.24 1823.98 Q2351.43 1823.98 2348.35 1819.4 Q2345.29 1814.79 2345.29 1806.06 Q2345.29 1797.31 2348.35 1792.73 Q2351.43 1788.12 2357.24 1788.12 Z" fill="#000000" fill-rule="nonzero" fill-opacity="1" /><path clip-path="url(#clip810)" d="M1352.91 1871.52 L1340.02 1888.87 L1353.58 1907.17 L1346.67 1907.17 L1336.3 1893.17 L1325.92 1907.17 L1319.01 1907.17 L1332.86 1888.52 L1320.19 1871.52 L1327.1 1871.52 L1336.55 1884.22 L1346 1871.52 L1352.91 1871.52 Z" fill="#000000" fill-rule="nonzero" fill-opacity="1" /><path clip-path="url(#clip810)" d="M1382.03 1857.65 L1395.53 1857.65 L1395.53 1862.2 L1387.89 1862.2 L1387.89 1911.21 L1395.53 1911.21 L1395.53 1915.77 L1382.03 1915.77 L1382.03 1857.65 Z" fill="#000000" fill-rule="nonzero" fill-opacity="1" /><path clip-path="url(#clip810)" d="M1435.76 1878.37 Q1437.96 1874.42 1441.01 1872.54 Q1444.07 1870.66 1448.2 1870.66 Q1453.77 1870.66 1456.8 1874.58 Q1459.82 1878.46 1459.82 1885.66 L1459.82 1907.17 L1453.93 1907.17 L1453.93 1885.85 Q1453.93 1880.72 1452.12 1878.24 Q1450.3 1875.76 1446.58 1875.76 Q1442.03 1875.76 1439.39 1878.78 Q1436.75 1881.8 1436.75 1887.02 L1436.75 1907.17 L1430.86 1907.17 L1430.86 1885.85 Q1430.86 1880.69 1429.04 1878.24 Q1427.23 1875.76 1423.44 1875.76 Q1418.95 1875.76 1416.31 1878.81 Q1413.67 1881.84 1413.67 1887.02 L1413.67 1907.17 L1407.78 1907.17 L1407.78 1871.52 L1413.67 1871.52 L1413.67 1877.06 Q1415.68 1873.78 1418.48 1872.22 Q1421.28 1870.66 1425.13 1870.66 Q1429.01 1870.66 1431.72 1872.64 Q1434.45 1874.61 1435.76 1878.37 Z" fill="#000000" fill-rule="nonzero" fill-opacity="1" /><path clip-path="url(#clip810)" d="M1485.19 1857.65 L1485.19 1915.77 L1471.69 1915.77 L1471.69 1911.21 L1479.3 1911.21 L1479.3 1862.2 L1471.69 1862.2 L1471.69 1857.65 L1485.19 1857.65 Z" fill="#000000" fill-rule="nonzero" fill-opacity="1" /><polyline clip-path="url(#clip810)" style="stroke:#000000; stroke-linecap:round; stroke-linejoin:round; stroke-width:4; stroke-opacity:1; fill:none" points="298.69,1759.31 298.69,94.4882 "/>
<polyline clip-path="url(#clip810)" style="stroke:#000000; stroke-linecap:round; stroke-linejoin:round; stroke-width:4; stroke-opacity:1; fill:none" points="298.69,1669.63 317.587,1669.63 "/>
<polyline clip-path="url(#clip810)" style="stroke:#000000; stroke-linecap:round; stroke-linejoin:round; stroke-width:4; stroke-opacity:1; fill:none" points="298.69,1422.05 317.587,1422.05 "/>
<polyline clip-path="url(#clip810)" style="stroke:#000000; stroke-linecap:round; stroke-linejoin:round; stroke-width:4; stroke-opacity:1; fill:none" points="298.69,1174.47 317.587,1174.47 "/>
<polyline clip-path="url(#clip810)" style="stroke:#000000; stroke-linecap:round; stroke-linejoin:round; stroke-width:4; stroke-opacity:1; fill:none" points="298.69,926.898 317.587,926.898 "/>
<polyline clip-path="url(#clip810)" style="stroke:#000000; stroke-linecap:round; stroke-linejoin:round; stroke-width:4; stroke-opacity:1; fill:none" points="298.69,679.322 317.587,679.322 "/>
<polyline clip-path="url(#clip810)" style="stroke:#000000; stroke-linecap:round; stroke-linejoin:round; stroke-width:4; stroke-opacity:1; fill:none" points="298.69,431.747 317.587,431.747 "/>
<polyline clip-path="url(#clip810)" style="stroke:#000000; stroke-linecap:round; stroke-linejoin:round; stroke-width:4; stroke-opacity:1; fill:none" points="298.69,184.171 317.587,184.171 "/>
<path clip-path="url(#clip810)" d="M168.81 1670.08 L198.486 1670.08 L198.486 1674.01 L168.81 1674.01 L168.81 1670.08 Z" fill="#000000" fill-rule="nonzero" fill-opacity="1" /><path clip-path="url(#clip810)" d="M209.389 1682.97 L217.028 1682.97 L217.028 1656.6 L208.718 1658.27 L208.718 1654.01 L216.981 1652.35 L221.657 1652.35 L221.657 1682.97 L229.296 1682.97 L229.296 1686.91 L209.389 1686.91 L209.389 1682.97 Z" fill="#000000" fill-rule="nonzero" fill-opacity="1" /><path clip-path="url(#clip810)" d="M238.787 1652.35 L257.143 1652.35 L257.143 1656.28 L243.069 1656.28 L243.069 1664.75 Q244.088 1664.41 245.106 1664.24 Q246.125 1664.06 247.143 1664.06 Q252.93 1664.06 256.31 1667.23 Q259.69 1670.4 259.69 1675.82 Q259.69 1681.4 256.217 1684.5 Q252.745 1687.58 246.426 1687.58 Q244.25 1687.58 241.981 1687.21 Q239.736 1686.84 237.329 1686.1 L237.329 1681.4 Q239.412 1682.53 241.634 1683.09 Q243.856 1683.64 246.333 1683.64 Q250.338 1683.64 252.676 1681.54 Q255.014 1679.43 255.014 1675.82 Q255.014 1672.21 252.676 1670.1 Q250.338 1667.99 246.333 1667.99 Q244.458 1667.99 242.583 1668.41 Q240.731 1668.83 238.787 1669.71 L238.787 1652.35 Z" fill="#000000" fill-rule="nonzero" fill-opacity="1" /><path clip-path="url(#clip810)" d="M167.815 1422.5 L197.491 1422.5 L197.491 1426.44 L167.815 1426.44 L167.815 1422.5 Z" fill="#000000" fill-rule="nonzero" fill-opacity="1" /><path clip-path="url(#clip810)" d="M208.394 1435.39 L216.032 1435.39 L216.032 1409.03 L207.722 1410.7 L207.722 1406.44 L215.986 1404.77 L220.662 1404.77 L220.662 1435.39 L228.301 1435.39 L228.301 1439.33 L208.394 1439.33 L208.394 1435.39 Z" fill="#000000" fill-rule="nonzero" fill-opacity="1" /><path clip-path="url(#clip810)" d="M247.745 1407.85 Q244.134 1407.85 242.305 1411.41 Q240.5 1414.95 240.5 1422.08 Q240.5 1429.19 242.305 1432.76 Q244.134 1436.3 247.745 1436.3 Q251.379 1436.3 253.185 1432.76 Q255.014 1429.19 255.014 1422.08 Q255.014 1414.95 253.185 1411.41 Q251.379 1407.85 247.745 1407.85 M247.745 1404.14 Q253.555 1404.14 256.611 1408.75 Q259.69 1413.33 259.69 1422.08 Q259.69 1430.81 256.611 1435.42 Q253.555 1440 247.745 1440 Q241.935 1440 238.856 1435.42 Q235.801 1430.81 235.801 1422.08 Q235.801 1413.33 238.856 1408.75 Q241.935 1404.14 247.745 1404.14 Z" fill="#000000" fill-rule="nonzero" fill-opacity="1" /><path clip-path="url(#clip810)" d="M198.972 1174.93 L228.648 1174.93 L228.648 1178.86 L198.972 1178.86 L198.972 1174.93 Z" fill="#000000" fill-rule="nonzero" fill-opacity="1" /><path clip-path="url(#clip810)" d="M238.787 1157.19 L257.143 1157.19 L257.143 1161.13 L243.069 1161.13 L243.069 1169.6 Q244.088 1169.25 245.106 1169.09 Q246.125 1168.91 247.143 1168.91 Q252.93 1168.91 256.31 1172.08 Q259.69 1175.25 259.69 1180.67 Q259.69 1186.24 256.217 1189.35 Q252.745 1192.43 246.426 1192.43 Q244.25 1192.43 241.981 1192.05 Q239.736 1191.68 237.329 1190.94 L237.329 1186.24 Q239.412 1187.38 241.634 1187.93 Q243.856 1188.49 246.333 1188.49 Q250.338 1188.49 252.676 1186.38 Q255.014 1184.28 255.014 1180.67 Q255.014 1177.05 252.676 1174.95 Q250.338 1172.84 246.333 1172.84 Q244.458 1172.84 242.583 1173.26 Q240.731 1173.68 238.787 1174.55 L238.787 1157.19 Z" fill="#000000" fill-rule="nonzero" fill-opacity="1" /><path clip-path="url(#clip810)" d="M247.745 912.697 Q244.134 912.697 242.305 916.262 Q240.5 919.803 240.5 926.933 Q240.5 934.039 242.305 937.604 Q244.134 941.146 247.745 941.146 Q251.379 941.146 253.185 937.604 Q255.014 934.039 255.014 926.933 Q255.014 919.803 253.185 916.262 Q251.379 912.697 247.745 912.697 M247.745 908.993 Q253.555 908.993 256.611 913.6 Q259.69 918.183 259.69 926.933 Q259.69 935.66 256.611 940.266 Q253.555 944.849 247.745 944.849 Q241.935 944.849 238.856 940.266 Q235.801 935.66 235.801 926.933 Q235.801 918.183 238.856 913.6 Q241.935 908.993 247.745 908.993 Z" fill="#000000" fill-rule="nonzero" fill-opacity="1" /><path clip-path="url(#clip810)" d="M238.787 662.042 L257.143 662.042 L257.143 665.977 L243.069 665.977 L243.069 674.45 Q244.088 674.102 245.106 673.94 Q246.125 673.755 247.143 673.755 Q252.93 673.755 256.31 676.927 Q259.69 680.098 259.69 685.514 Q259.69 691.093 256.217 694.195 Q252.745 697.274 246.426 697.274 Q244.25 697.274 241.981 696.903 Q239.736 696.533 237.329 695.792 L237.329 691.093 Q239.412 692.227 241.634 692.783 Q243.856 693.338 246.333 693.338 Q250.338 693.338 252.676 691.232 Q255.014 689.126 255.014 685.514 Q255.014 681.903 252.676 679.797 Q250.338 677.69 246.333 677.69 Q244.458 677.69 242.583 678.107 Q240.731 678.524 238.787 679.403 L238.787 662.042 Z" fill="#000000" fill-rule="nonzero" fill-opacity="1" /><path clip-path="url(#clip810)" d="M208.394 445.091 L216.032 445.091 L216.032 418.726 L207.722 420.392 L207.722 416.133 L215.986 414.467 L220.662 414.467 L220.662 445.091 L228.301 445.091 L228.301 449.027 L208.394 449.027 L208.394 445.091 Z" fill="#000000" fill-rule="nonzero" fill-opacity="1" /><path clip-path="url(#clip810)" d="M247.745 417.545 Q244.134 417.545 242.305 421.11 Q240.5 424.652 240.5 431.781 Q240.5 438.888 242.305 442.453 Q244.134 445.994 247.745 445.994 Q251.379 445.994 253.185 442.453 Q255.014 438.888 255.014 431.781 Q255.014 424.652 253.185 421.11 Q251.379 417.545 247.745 417.545 M247.745 413.842 Q253.555 413.842 256.611 418.448 Q259.69 423.031 259.69 431.781 Q259.69 440.508 256.611 445.115 Q253.555 449.698 247.745 449.698 Q241.935 449.698 238.856 445.115 Q235.801 440.508 235.801 431.781 Q235.801 423.031 238.856 418.448 Q241.935 413.842 247.745 413.842 Z" fill="#000000" fill-rule="nonzero" fill-opacity="1" /><path clip-path="url(#clip810)" d="M209.389 197.516 L217.028 197.516 L217.028 171.15 L208.718 172.817 L208.718 168.557 L216.981 166.891 L221.657 166.891 L221.657 197.516 L229.296 197.516 L229.296 201.451 L209.389 201.451 L209.389 197.516 Z" fill="#000000" fill-rule="nonzero" fill-opacity="1" /><path clip-path="url(#clip810)" d="M238.787 166.891 L257.143 166.891 L257.143 170.826 L243.069 170.826 L243.069 179.298 Q244.088 178.951 245.106 178.789 Q246.125 178.604 247.143 178.604 Q252.93 178.604 256.31 181.775 Q259.69 184.946 259.69 190.363 Q259.69 195.942 256.217 199.043 Q252.745 202.122 246.426 202.122 Q244.25 202.122 241.981 201.752 Q239.736 201.381 237.329 200.641 L237.329 195.942 Q239.412 197.076 241.634 197.631 Q243.856 198.187 246.333 198.187 Q250.338 198.187 252.676 196.08 Q255.014 193.974 255.014 190.363 Q255.014 186.752 252.676 184.645 Q250.338 182.539 246.333 182.539 Q244.458 182.539 242.583 182.955 Q240.731 183.372 238.787 184.252 L238.787 166.891 Z" fill="#000000" fill-rule="nonzero" fill-opacity="1" /><path clip-path="url(#clip810)" d="M117.869 990.921 Q124.235 993.404 126.176 995.759 Q128.118 998.114 128.118 1002.06 L128.118 1006.74 L123.216 1006.74 L123.216 1003.3 Q123.216 1000.88 122.071 999.547 Q120.925 998.21 116.66 996.587 L113.986 995.536 L78.9111 1009.95 L78.9111 1003.75 L106.793 992.608 L78.9111 981.468 L78.9111 975.262 L117.869 990.921 Z" fill="#000000" fill-rule="nonzero" fill-opacity="1" /><path clip-path="url(#clip810)" d="M65.0338 946.998 L65.0338 933.503 L69.5853 933.503 L69.5853 941.141 L118.601 941.141 L118.601 933.503 L123.153 933.503 L123.153 946.998 L65.0338 946.998 Z" fill="#000000" fill-rule="nonzero" fill-opacity="1" /><path clip-path="url(#clip810)" d="M85.7542 893.271 Q81.8075 891.075 79.9296 888.02 Q78.0517 884.964 78.0517 880.826 Q78.0517 875.256 81.9666 872.233 Q85.8497 869.209 93.0429 869.209 L114.559 869.209 L114.559 875.097 L93.2339 875.097 Q88.1095 875.097 85.6269 876.911 Q83.1443 878.726 83.1443 882.45 Q83.1443 887.001 86.168 889.643 Q89.1917 892.285 94.4116 892.285 L114.559 892.285 L114.559 898.173 L93.2339 898.173 Q88.0777 898.173 85.6269 899.987 Q83.1443 901.801 83.1443 905.589 Q83.1443 910.077 86.1998 912.719 Q89.2235 915.36 94.4116 915.36 L114.559 915.36 L114.559 921.249 L78.9111 921.249 L78.9111 915.36 L84.4492 915.36 Q81.1709 913.355 79.6113 910.554 Q78.0517 907.753 78.0517 903.902 Q78.0517 900.019 80.0251 897.314 Q81.9984 894.576 85.7542 893.271 Z" fill="#000000" fill-rule="nonzero" fill-opacity="1" /><path clip-path="url(#clip810)" d="M65.0338 843.842 L123.153 843.842 L123.153 857.337 L118.601 857.337 L118.601 849.73 L69.5853 849.73 L69.5853 857.337 L65.0338 857.337 L65.0338 843.842 Z" fill="#000000" fill-rule="nonzero" fill-opacity="1" /><path clip-path="url(#clip812)" d="M2098.09 975.306 L2098.09 975.306 L2261.48 1175.45 L2327.51 1175.45 L2254.9 975.306 L2254.9 975.306 L2254.9 878.49 L2254.9 878.49 L2327.51 678.35 L2261.48 678.35 L2098.09 878.49 L2098.09 878.49  Z" fill="#ffffff" fill-rule="evenodd" fill-opacity="0.8"/>
<polyline clip-path="url(#clip812)" style="stroke:#000000; stroke-linecap:round; stroke-linejoin:round; stroke-width:8; stroke-opacity:0.8; fill:none" points="2098.09,975.306 2098.09,975.306 2261.48,1175.45 2327.51,1175.45 2254.9,975.306 "/>
<polyline clip-path="url(#clip812)" style="stroke:#000000; stroke-linecap:round; stroke-linejoin:round; stroke-width:8; stroke-opacity:0.8; fill:none" points="2098.09,878.49 2098.09,878.49 2261.48,678.35 2327.51,678.35 2254.9,878.49 "/>
<polyline clip-path="url(#clip812)" style="stroke:#000000; stroke-linecap:round; stroke-linejoin:round; stroke-width:8; stroke-opacity:1; fill:none" points="1111.89,835.594 1224.94,677.492 1476.31,214.309 1523,214.309 1360.1,677.492 1345.35,835.594 "/>
<polyline clip-path="url(#clip812)" style="stroke:#000000; stroke-linecap:round; stroke-linejoin:round; stroke-width:8; stroke-opacity:1; fill:none" points="1111.89,1018.2 1224.94,1176.3 1476.31,1639.49 1523,1639.49 1360.1,1176.3 1345.35,1018.2 "/>
<path clip-path="url(#clip812)" d="M361.147 926.898 L364.343 935.847 L373.835 947.898 L389.334 960.98 L410.369 974.185 L436.301 986.809 L466.343 998.226 L499.58 1007.84 L535.004 1014.98 L571.538 1018.5 L2056.9 1018.5 L2099.81 1016.54 L2142.71 1011.91 L2185.62 1005.11 L2228.53 996.34 L2271.43 985.753 L2314.34 973.445 L2357.24 959.494 L2400.15 943.961 L2443.05 926.898 L2443.05 926.898 L2443.05 926.898 L2443.05 926.898 L2400.15 909.836 L2357.24 894.303 L2314.34 880.351 L2271.43 868.043 L2228.53 857.456 L2185.62 848.69 L2142.71 841.884 L2099.81 837.254 L2056.9 835.295 L571.538 835.295 L535.004 838.813 L499.58 845.96 L466.343 855.571 L436.301 866.988 L410.369 879.611 L389.334 892.816 L373.835 905.898 L364.343 917.95 L361.147 926.898  Z" fill="#ffffff" fill-rule="evenodd" fill-opacity="1"/>
<polyline clip-path="url(#clip812)" style="stroke:#ffffff; stroke-linecap:round; stroke-linejoin:round; stroke-width:8; stroke-opacity:1; fill:none" points="361.147,926.898 364.343,935.847 373.835,947.898 389.334,960.98 410.369,974.185 436.301,986.809 466.343,998.226 499.58,1007.84 535.004,1014.98 571.538,1018.5 2056.9,1018.5 2099.81,1016.54 2142.71,1011.91 2185.62,1005.11 2228.53,996.34 2271.43,985.753 2314.34,973.445 2357.24,959.494 2400.15,943.961 2443.05,926.898 "/>
<polyline clip-path="url(#clip812)" style="stroke:#000000; stroke-linecap:round; stroke-linejoin:round; stroke-width:8; stroke-opacity:1; fill:none" points="361.147,926.898 364.343,917.95 373.835,905.898 389.334,892.816 410.369,879.611 436.301,866.988 466.343,855.571 499.58,845.96 535.004,838.813 571.538,835.295 2056.9,835.295 2099.81,837.254 2142.71,841.884 2185.62,848.69 2228.53,857.456 2271.43,868.043 2314.34,880.351 2357.24,894.303 2400.15,909.836 2443.05,926.898 "/>
<polyline clip-path="url(#clip812)" style="stroke:#000000; stroke-linecap:round; stroke-linejoin:round; stroke-width:8; stroke-opacity:1; fill:none" points="361.147,926.898 364.343,935.847 373.835,947.898 389.334,960.98 410.369,974.185 436.301,986.809 466.343,998.226 499.58,1007.84 535.004,1014.98 571.538,1018.5 2056.9,1018.5 2099.81,1016.54 2142.71,1011.91 2185.62,1005.11 2228.53,996.34 2271.43,985.753 2314.34,973.445 2357.24,959.494 2400.15,943.961 2443.05,926.898 "/>
<polyline clip-path="url(#clip812)" style="stroke:#000000; stroke-linecap:round; stroke-linejoin:round; stroke-width:8; stroke-opacity:0.5; fill:none" points="1224.94,677.492 1360.1,677.492 "/>
<polyline clip-path="url(#clip812)" style="stroke:#000000; stroke-linecap:round; stroke-linejoin:round; stroke-width:8; stroke-opacity:0.5; fill:none" points="1224.94,1176.3 1360.1,1176.3 "/>
<polyline clip-path="url(#clip812)" style="stroke:#000000; stroke-linecap:round; stroke-linejoin:round; stroke-width:8; stroke-opacity:1; fill:none" points="2026.37,1018.5 2033.16,1016.2 2039.62,1009.43 2045.41,998.516 2050.24,984.012 2053.88,966.643 2056.14,947.282 2056.9,926.898 "/>
<polyline clip-path="url(#clip812)" style="stroke:#000000; stroke-linecap:round; stroke-linejoin:round; stroke-width:8; stroke-opacity:1; fill:none" points="2026.37,835.295 2033.16,837.592 2039.62,844.367 2045.41,855.28 2050.24,869.785 2053.88,887.153 2056.14,906.515 2056.9,926.898 "/>
<polyline clip-path="url(#clip812)" style="stroke:#000000; stroke-linecap:round; stroke-linejoin:round; stroke-width:8; stroke-opacity:1; fill:none" points="1617.93,926.898 1619.02,946.18 1622.22,964.495 1627.38,980.924 1634.25,994.645 1642.46,1004.97 1651.62,1011.38 1661.26,1013.55 1998.49,1013.55 2008.13,1011.38 2017.28,1004.97 2025.5,994.645 2032.36,980.924 2037.52,964.495 2040.72,946.18 2041.81,926.898 "/>
<polyline clip-path="url(#clip812)" style="stroke:#000000; stroke-linecap:round; stroke-linejoin:round; stroke-width:8; stroke-opacity:1; fill:none" points="1617.93,926.898 1619.02,907.616 1622.22,889.301 1627.38,872.872 1634.25,859.151 1642.46,848.828 1651.62,842.419 1661.26,840.247 1998.49,840.247 2008.13,842.419 2017.28,848.828 2025.5,859.151 2032.36,872.872 2037.52,889.301 2040.72,907.616 2041.81,926.898 "/>
<path clip-path="url(#clip812)" d="M2153.72 926.898 L2214.19 941.411 L2298.85 941.411 L2395.61 926.898 L2395.61 926.898 L2298.85 912.385 L2214.19 912.385 L2153.72 926.898  Z" fill="#000000" fill-rule="evenodd" fill-opacity="0.8"/>
<polyline clip-path="url(#clip812)" style="stroke:#000000; stroke-linecap:round; stroke-linejoin:round; stroke-width:8; stroke-opacity:0.8; fill:none" points="2153.72,926.898 2214.19,941.411 2298.85,941.411 2395.61,926.898 "/>
<circle clip-path="url(#clip812)" cx="1332.6" cy="926.898" r="14.4" fill="#000000" fill-rule="evenodd" fill-opacity="1" stroke="none"/>
<polyline clip-path="url(#clip812)" style="stroke:#000000; stroke-linecap:round; stroke-linejoin:round; stroke-width:8; stroke-opacity:1; fill:none" points="361.147,926.898 361.147,926.898 "/>
<polyline clip-path="url(#clip812)" style="stroke:#000000; stroke-linecap:round; stroke-linejoin:round; stroke-width:8; stroke-opacity:1; fill:none" points="361.147,926.898 361.147,926.898 "/>
<polyline clip-path="url(#clip812)" style="stroke:#000000; stroke-linecap:round; stroke-linejoin:round; stroke-width:8; stroke-opacity:1; fill:none" points="1175.42,712.202 1175.42,642.782 1342.03,654.352 1342.03,700.632 1175.42,712.202 "/>
<polyline clip-path="url(#clip812)" style="stroke:#000000; stroke-linecap:round; stroke-linejoin:round; stroke-width:8; stroke-opacity:1; fill:none" points="1175.42,1141.59 1175.42,1211.01 1342.03,1199.44 1342.03,1153.16 1175.42,1141.59 "/>
<polyline clip-path="url(#clip812)" style="stroke:#000000; stroke-linecap:round; stroke-linejoin:round; stroke-width:8; stroke-opacity:1; fill:none" points="1171.65,926.898 1308.01,926.898 "/>
<line clip-path="url(#clip812)" x1="1171.65" y1="942.898" x2="1171.65" y2="910.898" style="stroke:#000000; stroke-width:4; stroke-opacity:1"/>
<line clip-path="url(#clip812)" x1="1308.01" y1="942.898" x2="1308.01" y2="910.898" style="stroke:#000000; stroke-width:4; stroke-opacity:1"/>
</svg>
