<?xml version="1.0" encoding="utf-8"?>
<svg xmlns="http://www.w3.org/2000/svg" xmlns:xlink="http://www.w3.org/1999/xlink" width="650" height="500" viewBox="0 0 2600 2000">
<defs>
  <clipPath id="clip490">
    <rect x="0" y="0" width="2600" height="2000"/>
  </clipPath>
</defs>
<path clip-path="url(#clip490)" d="M0 2000 L2600 2000 L2600 0 L0 0  Z" fill="#ffffff" fill-rule="evenodd" fill-opacity="1"/>
<defs>
  <clipPath id="clip491">
    <rect x="520" y="0" width="1821" height="1821"/>
  </clipPath>
</defs>
<path clip-path="url(#clip490)" d="M298.69 1759.31 L2505.51 1759.31 L2505.51 94.4882 L298.69 94.4882  Z" fill="#ffffff" fill-rule="evenodd" fill-opacity="1"/>
<defs>
  <clipPath id="clip492">
    <rect x="298" y="94" width="2208" height="1666"/>
  </clipPath>
</defs>
<polyline clip-path="url(#clip490)" style="stroke:#000000; stroke-linecap:round; stroke-linejoin:round; stroke-width:4; stroke-opacity:1; fill:none" points="298.69,1759.31 2505.51,1759.31 "/>
<polyline clip-path="url(#clip490)" style="stroke:#000000; stroke-linecap:round; stroke-linejoin:round; stroke-width:4; stroke-opacity:1; fill:none" points="554.804,1759.31 554.804,1740.41 "/>
<polyline clip-path="url(#clip490)" style="stroke:#000000; stroke-linecap:round; stroke-linejoin:round; stroke-width:4; stroke-opacity:1; fill:none" points="1036.99,1759.31 1036.99,1740.41 "/>
<polyline clip-path="url(#clip490)" style="stroke:#000000; stroke-linecap:round; stroke-linejoin:round; stroke-width:4; stroke-opacity:1; fill:none" points="1519.17,1759.31 1519.17,1740.41 "/>
<polyline clip-path="url(#clip490)" style="stroke:#000000; stroke-linecap:round; stroke-linejoin:round; stroke-width:4; stroke-opacity:1; fill:none" points="2001.36,1759.31 2001.36,1740.41 "/>
<polyline clip-path="url(#clip490)" style="stroke:#000000; stroke-linecap:round; stroke-linejoin:round; stroke-width:4; stroke-opacity:1; fill:none" points="2483.54,1759.31 2483.54,1740.41 "/>
<path clip-path="url(#clip490)" d="M554.804 1791.83 Q551.193 1791.83 549.365 1795.39 Q547.559 1798.93 547.559 1806.06 Q547.559 1813.17 549.365 1816.73 Q551.193 1820.28 554.804 1820.28 Q558.439 1820.28 560.244 1816.73 Q562.073 1813.17 562.073 1806.06 Q562.073 1798.93 560.244 1795.39 Q558.439 1791.83 554.804 1791.83 M554.804 1788.12 Q560.614 1788.12 563.67 1792.73 Q566.749 1797.31 566.749 1806.06 Q566.749 1814.79 563.67 1819.4 Q560.614 1823.98 554.804 1823.98 Q548.994 1823.98 545.915 1819.4 Q542.86 1814.79 542.86 1806.06 Q542.86 1797.31 545.915 1792.73 Q548.994 1788.12 554.804 1788.12 Z" fill="#000000" fill-rule="nonzero" fill-opacity="1" /><path clip-path="url(#clip490)" d="M1011.68 1819.37 L1019.32 1819.37 L1019.32 1793.01 L1011.01 1794.67 L1011.01 1790.41 L1019.27 1788.75 L1023.95 1788.75 L1023.95 1819.37 L1031.58 1819.37 L1031.58 1823.31 L1011.68 1823.31 L1011.68 1819.37 Z" fill="#000000" fill-rule="nonzero" fill-opacity="1" /><path clip-path="url(#clip490)" d="M1051.03 1791.83 Q1047.42 1791.83 1045.59 1795.39 Q1043.78 1798.93 1043.78 1806.06 Q1043.78 1813.17 1045.59 1816.73 Q1047.42 1820.28 1051.03 1820.28 Q1054.66 1820.28 1056.47 1816.73 Q1058.3 1813.17 1058.3 1806.06 Q1058.3 1798.93 1056.47 1795.39 Q1054.66 1791.83 1051.03 1791.83 M1051.03 1788.12 Q1056.84 1788.12 1059.89 1792.73 Q1062.97 1797.31 1062.97 1806.06 Q1062.97 1814.79 1059.89 1819.4 Q1056.84 1823.98 1051.03 1823.98 Q1045.22 1823.98 1042.14 1819.4 Q1039.08 1814.79 1039.08 1806.06 Q1039.08 1797.31 1042.14 1792.73 Q1045.22 1788.12 1051.03 1788.12 Z" fill="#000000" fill-rule="nonzero" fill-opacity="1" /><path clip-path="url(#clip490)" d="M1497.95 1819.37 L1514.27 1819.37 L1514.27 1823.31 L1492.32 1823.31 L1492.32 1819.37 Q1494.98 1816.62 1499.57 1811.99 Q1504.17 1807.34 1505.36 1805.99 Q1507.6 1803.47 1508.48 1801.73 Q1509.38 1799.97 1509.38 1798.29 Q1509.38 1795.53 1507.44 1793.79 Q1505.52 1792.06 1502.42 1792.06 Q1500.22 1792.06 1497.76 1792.82 Q1495.33 1793.59 1492.55 1795.14 L1492.55 1790.41 Q1495.38 1789.28 1497.83 1788.7 Q1500.29 1788.12 1502.32 1788.12 Q1507.69 1788.12 1510.89 1790.81 Q1514.08 1793.49 1514.08 1797.98 Q1514.08 1800.11 1513.27 1802.04 Q1512.48 1803.93 1510.38 1806.53 Q1509.8 1807.2 1506.7 1810.41 Q1503.6 1813.61 1497.95 1819.37 Z" fill="#000000" fill-rule="nonzero" fill-opacity="1" /><path clip-path="url(#clip490)" d="M1534.08 1791.83 Q1530.47 1791.83 1528.64 1795.39 Q1526.84 1798.93 1526.84 1806.06 Q1526.84 1813.17 1528.64 1816.73 Q1530.47 1820.28 1534.08 1820.28 Q1537.72 1820.28 1539.52 1816.73 Q1541.35 1813.17 1541.35 1806.06 Q1541.35 1798.93 1539.52 1795.39 Q1537.72 1791.83 1534.08 1791.83 M1534.08 1788.12 Q1539.89 1788.12 1542.95 1792.73 Q1546.03 1797.31 1546.03 1806.06 Q1546.03 1814.79 1542.95 1819.4 Q1539.89 1823.98 1534.08 1823.98 Q1528.27 1823.98 1525.19 1819.4 Q1522.14 1814.79 1522.14 1806.06 Q1522.14 1797.31 1525.19 1792.73 Q1528.27 1788.12 1534.08 1788.12 Z" fill="#000000" fill-rule="nonzero" fill-opacity="1" /><path clip-path="url(#clip490)" d="M1990.2 1804.67 Q1993.56 1805.39 1995.43 1807.66 Q1997.33 1809.93 1997.33 1813.26 Q1997.33 1818.38 1993.81 1821.18 Q1990.29 1823.98 1983.81 1823.98 Q1981.64 1823.98 1979.32 1823.54 Q1977.03 1823.12 1974.58 1822.27 L1974.58 1817.75 Q1976.52 1818.89 1978.84 1819.47 Q1981.15 1820.04 1983.67 1820.04 Q1988.07 1820.04 1990.36 1818.31 Q1992.68 1816.57 1992.68 1813.26 Q1992.68 1810.21 1990.53 1808.49 Q1988.4 1806.76 1984.58 1806.76 L1980.55 1806.76 L1980.55 1802.91 L1984.76 1802.91 Q1988.21 1802.91 1990.04 1801.55 Q1991.87 1800.16 1991.87 1797.57 Q1991.87 1794.91 1989.97 1793.49 Q1988.1 1792.06 1984.58 1792.06 Q1982.66 1792.06 1980.46 1792.47 Q1978.26 1792.89 1975.62 1793.77 L1975.62 1789.6 Q1978.28 1788.86 1980.6 1788.49 Q1982.93 1788.12 1984.99 1788.12 Q1990.32 1788.12 1993.42 1790.55 Q1996.52 1792.96 1996.52 1797.08 Q1996.52 1799.95 1994.88 1801.94 Q1993.23 1803.91 1990.2 1804.67 Z" fill="#000000" fill-rule="nonzero" fill-opacity="1" /><path clip-path="url(#clip490)" d="M2016.2 1791.83 Q2012.59 1791.83 2010.76 1795.39 Q2008.95 1798.93 2008.95 1806.06 Q2008.95 1813.17 2010.76 1816.73 Q2012.59 1820.28 2016.2 1820.28 Q2019.83 1820.28 2021.64 1816.73 Q2023.47 1813.17 2023.47 1806.06 Q2023.47 1798.93 2021.64 1795.39 Q2019.83 1791.83 2016.2 1791.83 M2016.2 1788.12 Q2022.01 1788.12 2025.06 1792.73 Q2028.14 1797.31 2028.14 1806.06 Q2028.14 1814.79 2025.06 1819.4 Q2022.01 1823.98 2016.2 1823.98 Q2010.39 1823.98 2007.31 1819.4 Q2004.25 1814.79 2004.25 1806.06 Q2004.25 1797.31 2007.31 1792.73 Q2010.39 1788.12 2016.2 1788.12 Z" fill="#000000" fill-rule="nonzero" fill-opacity="1" /><path clip-path="url(#clip490)" d="M2471.72 1792.82 L2459.91 1811.27 L2471.72 1811.27 L2471.72 1792.82 M2470.49 1788.75 L2476.37 1788.75 L2476.37 1811.27 L2481.3 1811.27 L2481.3 1815.16 L2476.37 1815.16 L2476.37 1823.31 L2471.72 1823.31 L2471.72 1815.16 L2456.11 1815.16 L2456.11 1810.65 L2470.49 1788.75 Z" fill="#000000" fill-rule="nonzero" fill-opacity="1" /><path clip-path="url(#clip490)" d="M2499.03 1791.83 Q2495.42 1791.83 2493.59 1795.39 Q2491.79 1798.93 2491.79 1806.06 Q2491.79 1813.17 2493.59 1816.73 Q2495.42 1820.28 2499.03 1820.28 Q2502.66 1820.28 2504.47 1816.73 Q2506.3 1813.17 2506.3 1806.06 Q2506.3 1798.93 2504.47 1795.39 Q2502.66 1791.83 2499.03 1791.83 M2499.03 1788.12 Q2504.84 1788.12 2507.9 1792.73 Q2510.97 1797.31 2510.97 1806.06 Q2510.97 1814.79 2507.9 1819.4 Q2504.84 1823.98 2499.03 1823.98 Q2493.22 1823.98 2490.14 1819.4 Q2487.09 1814.79 2487.09 1806.06 Q2487.09 1797.31 2490.14 1792.73 Q2493.22 1788.12 2499.03 1788.12 Z" fill="#000000" fill-rule="nonzero" fill-opacity="1" /><path clip-path="url(#clip490)" d="M1352.91 1871.52 L1340.02 1888.87 L1353.58 1907.17 L1346.67 1907.17 L1336.3 1893.17 L1325.92 1907.17 L1319.01 1907.17 L1332.86 1888.52 L1320.19 1871.52 L1327.1 1871.52 L1336.55 1884.22 L1346 1871.52 L1352.91 1871.52 Z" fill="#000000" fill-rule="nonzero" fill-opacity="1" /><path clip-path="url(#clip490)" d="M1382.03 1857.65 L1395.53 1857.65 L1395.53 1862.2 L1387.89 1862.2 L1387.89 1911.21 L1395.53 1911.21 L1395.53 1915.77 L1382.03 1915.77 L1382.03 1857.65 Z" fill="#000000" fill-rule="nonzero" fill-opacity="1" /><path clip-path="url(#clip490)" d="M1435.76 1878.37 Q1437.96 1874.42 1441.01 1872.54 Q1444.07 1870.66 1448.2 1870.66 Q1453.77 1870.66 1456.8 1874.58 Q1459.82 1878.46 1459.82 1885.66 L1459.82 1907.17 L1453.93 1907.17 L1453.93 1885.85 Q1453.93 1880.72 1452.12 1878.24 Q1450.3 1875.76 1446.58 1875.76 Q1442.03 1875.76 1439.39 1878.78 Q1436.75 1881.8 1436.75 1887.02 L1436.75 1907.17 L1430.86 1907.17 L1430.86 1885.85 Q1430.86 1880.69 1429.04 1878.24 Q1427.23 1875.76 1423.44 1875.76 Q1418.95 1875.76 1416.31 1878.81 Q1413.67 1881.84 1413.67 1887.02 L1413.67 1907.17 L1407.78 1907.17 L1407.78 1871.52 L1413.67 1871.52 L1413.67 1877.06 Q1415.68 1873.78 1418.48 1872.22 Q1421.28 1870.66 1425.13 1870.66 Q1429.01 1870.66 1431.72 1872.64 Q1434.45 1874.61 1435.76 1878.37 Z" fill="#000000" fill-rule="nonzero" fill-opacity="1" /><path clip-path="url(#clip490)" d="M1485.19 1857.65 L1485.19 1915.77 L1471.69 1915.77 L1471.69 1911.21 L1479.3 1911.21 L1479.3 1862.2 L1471.69 1862.2 L1471.69 1857.65 L1485.19 1857.65 Z" fill="#000000" fill-rule="nonzero" fill-opacity="1" /><polyline clip-path="url(#clip490)" style="stroke:#000000; stroke-linecap:round; stroke-linejoin:round; stroke-width:4; stroke-opacity:1; fill:none" points="298.69,1759.31 298.69,94.4882 "/>
<polyline clip-path="url(#clip490)" style="stroke:#000000; stroke-linecap:round; stroke-linejoin:round; stroke-width:4; stroke-opacity:1; fill:none" points="298.69,1650.18 317.587,1650.18 "/>
<polyline clip-path="url(#clip490)" style="stroke:#000000; stroke-linecap:round; stroke-linejoin:round; stroke-width:4; stroke-opacity:1; fill:none" points="298.69,1409.08 317.587,1409.08 "/>
<polyline clip-path="url(#clip490)" style="stroke:#000000; stroke-linecap:round; stroke-linejoin:round; stroke-width:4; stroke-opacity:1; fill:none" points="298.69,1167.99 317.587,1167.99 "/>
<polyline clip-path="url(#clip490)" style="stroke:#000000; stroke-linecap:round; stroke-linejoin:round; stroke-width:4; stroke-opacity:1; fill:none" points="298.69,926.898 317.587,926.898 "/>
<polyline clip-path="url(#clip490)" style="stroke:#000000; stroke-linecap:round; stroke-linejoin:round; stroke-width:4; stroke-opacity:1; fill:none" points="298.69,685.806 317.587,685.806 "/>
<polyline clip-path="url(#clip490)" style="stroke:#000000; stroke-linecap:round; stroke-linejoin:round; stroke-width:4; stroke-opacity:1; fill:none" points="298.69,444.713 317.587,444.713 "/>
<polyline clip-path="url(#clip490)" style="stroke:#000000; stroke-linecap:round; stroke-linejoin:round; stroke-width:4; stroke-opacity:1; fill:none" points="298.69,203.621 317.587,203.621 "/>
<path clip-path="url(#clip490)" d="M168.81 1650.63 L198.486 1650.63 L198.486 1654.56 L168.81 1654.56 L168.81 1650.63 Z" fill="#000000" fill-rule="nonzero" fill-opacity="1" /><path clip-path="url(#clip490)" d="M209.389 1663.52 L217.028 1663.52 L217.028 1637.15 L208.718 1638.82 L208.718 1634.56 L216.981 1632.9 L221.657 1632.9 L221.657 1663.52 L229.296 1663.52 L229.296 1667.46 L209.389 1667.46 L209.389 1663.52 Z" fill="#000000" fill-rule="nonzero" fill-opacity="1" /><path clip-path="url(#clip490)" d="M238.787 1632.9 L257.143 1632.9 L257.143 1636.83 L243.069 1636.83 L243.069 1645.3 Q244.088 1644.96 245.106 1644.79 Q246.125 1644.61 247.143 1644.61 Q252.93 1644.61 256.31 1647.78 Q259.69 1650.95 259.69 1656.37 Q259.69 1661.95 256.217 1665.05 Q252.745 1668.13 246.426 1668.13 Q244.25 1668.13 241.981 1667.76 Q239.736 1667.39 237.329 1666.65 L237.329 1661.95 Q239.412 1663.08 241.634 1663.64 Q243.856 1664.19 246.333 1664.19 Q250.338 1664.19 252.676 1662.09 Q255.014 1659.98 255.014 1656.37 Q255.014 1652.76 252.676 1650.65 Q250.338 1648.54 246.333 1648.54 Q244.458 1648.54 242.583 1648.96 Q240.731 1649.38 238.787 1650.26 L238.787 1632.9 Z" fill="#000000" fill-rule="nonzero" fill-opacity="1" /><path clip-path="url(#clip490)" d="M167.815 1409.53 L197.491 1409.53 L197.491 1413.47 L167.815 1413.47 L167.815 1409.53 Z" fill="#000000" fill-rule="nonzero" fill-opacity="1" /><path clip-path="url(#clip490)" d="M208.394 1422.43 L216.032 1422.43 L216.032 1396.06 L207.722 1397.73 L207.722 1393.47 L215.986 1391.8 L220.662 1391.8 L220.662 1422.43 L228.301 1422.43 L228.301 1426.36 L208.394 1426.36 L208.394 1422.43 Z" fill="#000000" fill-rule="nonzero" fill-opacity="1" /><path clip-path="url(#clip490)" d="M247.745 1394.88 Q244.134 1394.88 242.305 1398.45 Q240.5 1401.99 240.5 1409.12 Q240.5 1416.22 242.305 1419.79 Q244.134 1423.33 247.745 1423.33 Q251.379 1423.33 253.185 1419.79 Q255.014 1416.22 255.014 1409.12 Q255.014 1401.99 253.185 1398.45 Q251.379 1394.88 247.745 1394.88 M247.745 1391.18 Q253.555 1391.18 256.611 1395.78 Q259.69 1400.37 259.69 1409.12 Q259.69 1417.84 256.611 1422.45 Q253.555 1427.03 247.745 1427.03 Q241.935 1427.03 238.856 1422.45 Q235.801 1417.84 235.801 1409.12 Q235.801 1400.37 238.856 1395.78 Q241.935 1391.18 247.745 1391.18 Z" fill="#000000" fill-rule="nonzero" fill-opacity="1" /><path clip-path="url(#clip490)" d="M198.972 1168.44 L228.648 1168.44 L228.648 1172.38 L198.972 1172.38 L198.972 1168.44 Z" fill="#000000" fill-rule="nonzero" fill-opacity="1" /><path clip-path="url(#clip490)" d="M238.787 1150.71 L257.143 1150.71 L257.143 1154.65 L243.069 1154.65 L243.069 1163.12 Q244.088 1162.77 245.106 1162.61 Q246.125 1162.42 247.143 1162.42 Q252.93 1162.42 256.31 1165.59 Q259.69 1168.77 259.69 1174.18 Q259.69 1179.76 256.217 1182.86 Q252.745 1185.94 246.426 1185.94 Q244.25 1185.94 241.981 1185.57 Q239.736 1185.2 237.329 1184.46 L237.329 1179.76 Q239.412 1180.9 241.634 1181.45 Q243.856 1182.01 246.333 1182.01 Q250.338 1182.01 252.676 1179.9 Q255.014 1177.79 255.014 1174.18 Q255.014 1170.57 252.676 1168.47 Q250.338 1166.36 246.333 1166.36 Q244.458 1166.36 242.583 1166.78 Q240.731 1167.19 238.787 1168.07 L238.787 1150.71 Z" fill="#000000" fill-rule="nonzero" fill-opacity="1" /><path clip-path="url(#clip490)" d="M247.745 912.697 Q244.134 912.697 242.305 916.262 Q240.5 919.803 240.5 926.933 Q240.5 934.039 242.305 937.604 Q244.134 941.146 247.745 941.146 Q251.379 941.146 253.185 937.604 Q255.014 934.039 255.014 926.933 Q255.014 919.803 253.185 916.262 Q251.379 912.697 247.745 912.697 M247.745 908.993 Q253.555 908.993 256.611 913.6 Q259.69 918.183 259.69 926.933 Q259.69 935.66 256.611 940.266 Q253.555 944.849 247.745 944.849 Q241.935 944.849 238.856 940.266 Q235.801 935.66 235.801 926.933 Q235.801 918.183 238.856 913.6 Q241.935 908.993 247.745 908.993 Z" fill="#000000" fill-rule="nonzero" fill-opacity="1" /><path clip-path="url(#clip490)" d="M238.787 668.526 L257.143 668.526 L257.143 672.461 L243.069 672.461 L243.069 680.933 Q244.088 680.586 245.106 680.424 Q246.125 680.239 247.143 680.239 Q252.93 680.239 256.31 683.41 Q259.69 686.581 259.69 691.998 Q259.69 697.576 256.217 700.678 Q252.745 703.757 246.426 703.757 Q244.25 703.757 241.981 703.387 Q239.736 703.016 237.329 702.275 L237.329 697.576 Q239.412 698.711 241.634 699.266 Q243.856 699.822 246.333 699.822 Q250.338 699.822 252.676 697.715 Q255.014 695.609 255.014 691.998 Q255.014 688.387 252.676 686.28 Q250.338 684.174 246.333 684.174 Q244.458 684.174 242.583 684.59 Q240.731 685.007 238.787 685.887 L238.787 668.526 Z" fill="#000000" fill-rule="nonzero" fill-opacity="1" /><path clip-path="url(#clip490)" d="M208.394 458.058 L216.032 458.058 L216.032 431.692 L207.722 433.359 L207.722 429.1 L215.986 427.433 L220.662 427.433 L220.662 458.058 L228.301 458.058 L228.301 461.993 L208.394 461.993 L208.394 458.058 Z" fill="#000000" fill-rule="nonzero" fill-opacity="1" /><path clip-path="url(#clip490)" d="M247.745 430.512 Q244.134 430.512 242.305 434.077 Q240.5 437.618 240.5 444.748 Q240.5 451.854 242.305 455.419 Q244.134 458.961 247.745 458.961 Q251.379 458.961 253.185 455.419 Q255.014 451.854 255.014 444.748 Q255.014 437.618 253.185 434.077 Q251.379 430.512 247.745 430.512 M247.745 426.808 Q253.555 426.808 256.611 431.415 Q259.69 435.998 259.69 444.748 Q259.69 453.475 256.611 458.081 Q253.555 462.664 247.745 462.664 Q241.935 462.664 238.856 458.081 Q235.801 453.475 235.801 444.748 Q235.801 435.998 238.856 431.415 Q241.935 426.808 247.745 426.808 Z" fill="#000000" fill-rule="nonzero" fill-opacity="1" /><path clip-path="url(#clip490)" d="M209.389 216.965 L217.028 216.965 L217.028 190.6 L208.718 192.266 L208.718 188.007 L216.981 186.341 L221.657 186.341 L221.657 216.965 L229.296 216.965 L229.296 220.901 L209.389 220.901 L209.389 216.965 Z" fill="#000000" fill-rule="nonzero" fill-opacity="1" /><path clip-path="url(#clip490)" d="M238.787 186.341 L257.143 186.341 L257.143 190.276 L243.069 190.276 L243.069 198.748 Q244.088 198.401 245.106 198.239 Q246.125 198.053 247.143 198.053 Q252.93 198.053 256.31 201.225 Q259.69 204.396 259.69 209.813 Q259.69 215.391 256.217 218.493 Q252.745 221.572 246.426 221.572 Q244.25 221.572 241.981 221.202 Q239.736 220.831 237.329 220.09 L237.329 215.391 Q239.412 216.526 241.634 217.081 Q243.856 217.637 246.333 217.637 Q250.338 217.637 252.676 215.53 Q255.014 213.424 255.014 209.813 Q255.014 206.202 252.676 204.095 Q250.338 201.989 246.333 201.989 Q244.458 201.989 242.583 202.405 Q240.731 202.822 238.787 203.702 L238.787 186.341 Z" fill="#000000" fill-rule="nonzero" fill-opacity="1" /><path clip-path="url(#clip490)" d="M117.869 990.921 Q124.235 993.404 126.176 995.759 Q128.118 998.114 128.118 1002.06 L128.118 1006.74 L123.216 1006.74 L123.216 1003.3 Q123.216 1000.88 122.071 999.547 Q120.925 998.21 116.66 996.587 L113.986 995.536 L78.9111 1009.95 L78.9111 1003.75 L106.793 992.608 L78.9111 981.468 L78.9111 975.262 L117.869 990.921 Z" fill="#000000" fill-rule="nonzero" fill-opacity="1" /><path clip-path="url(#clip490)" d="M65.0338 946.998 L65.0338 933.503 L69.5853 933.503 L69.5853 941.141 L118.601 941.141 L118.601 933.503 L123.153 933.503 L123.153 946.998 L65.0338 946.998 Z" fill="#000000" fill-rule="nonzero" fill-opacity="1" /><path clip-path="url(#clip490)" d="M85.7542 893.271 Q81.8075 891.075 79.9296 888.02 Q78.0517 884.964 78.0517 880.826 Q78.0517 875.256 81.9666 872.233 Q85.8497 869.209 93.0429 869.209 L114.559 869.209 L114.559 875.097 L93.2339 875.097 Q88.1095 875.097 85.6269 876.911 Q83.1443 878.726 83.1443 882.45 Q83.1443 887.001 86.168 889.643 Q89.1917 892.285 94.4116 892.285 L114.559 892.285 L114.559 898.173 L93.2339 898.173 Q88.0777 898.173 85.6269 899.987 Q83.1443 901.801 83.1443 905.589 Q83.1443 910.077 86.1998 912.719 Q89.2235 915.36 94.4116 915.36 L114.559 915.36 L114.559 921.249 L78.9111 921.249 L78.9111 915.36 L84.4492 915.36 Q81.1709 913.355 79.6113 910.554 Q78.0517 907.753 78.0517 903.902 Q78.0517 900.019 80.0251 897.314 Q81.9984 894.576 85.7542 893.271 Z" fill="#000000" fill-rule="nonzero" fill-opacity="1" /><path clip-path="url(#clip490)" d="M65.0338 843.842 L123.153 843.842 L123.153 857.337 L118.601 857.337 L118.601 849.73 L69.5853 849.73 L69.5853 857.337 L65.0338 857.337 L65.0338 843.842 Z" fill="#000000" fill-rule="nonzero" fill-opacity="1" /><path clip-path="url(#clip492)" d="M1887.68 974.039 L1887.68 974.039 L2087.75 1220.67 L2166.81 1220.67 L2075.45 974.039 L2075.45 974.039 L2075.45 879.758 L2075.45 879.758 L2166.81 633.127 L2087.75 633.127 L1887.68 879.758 L1887.68 879.758  Z" fill="#ffffff" fill-rule="evenodd" fill-opacity="0.8"/>
<polyline clip-path="url(#clip492)" style="stroke:#000000; stroke-linecap:round; stroke-linejoin:round; stroke-width:8; stroke-opacity:0.8; fill:none" points="1887.68,974.039 1887.68,974.039 2087.75,1220.67 2166.81,1220.67 2075.45,974.039 "/>
<polyline clip-path="url(#clip492)" style="stroke:#000000; stroke-linecap:round; stroke-linejoin:round; stroke-width:8; stroke-opacity:0.8; fill:none" points="1887.68,879.758 1887.68,879.758 2087.75,633.127 2166.81,633.127 2075.45,879.758 "/>
<polyline clip-path="url(#clip492)" style="stroke:#000000; stroke-linecap:round; stroke-linejoin:round; stroke-width:8; stroke-opacity:1; fill:none" points="1207.63,837.985 1337.91,652.046 1615.15,141.606 1666.9,141.606 1487.7,652.046 1466.36,837.985 "/>
<polyline clip-path="url(#clip492)" style="stroke:#000000; stroke-linecap:round; stroke-linejoin:round; stroke-width:8; stroke-opacity:1; fill:none" points="1207.63,1015.81 1337.91,1201.75 1615.15,1712.19 1666.9,1712.19 1487.7,1201.75 1466.36,1015.81 "/>
<path clip-path="url(#clip492)" d="M554.804 926.898 L557.917 935.612 L567.16 947.348 L582.253 960.088 L602.738 972.947 L627.991 985.24 L657.245 996.358 L689.613 1005.72 L724.109 1012.68 L759.687 1016.1 L1773.41 1016.1 L1824.99 1014.19 L1876.57 1009.69 L1928.15 1003.06 L1979.73 994.522 L2031.31 984.212 L2082.89 972.226 L2134.47 958.64 L2186.05 943.514 L2237.63 926.898 L2237.63 926.898 L2237.63 926.898 L2237.63 926.898 L2186.05 910.283 L2134.47 895.156 L2082.89 881.57 L2031.31 869.584 L1979.73 859.275 L1928.15 850.738 L1876.57 844.11 L1824.99 839.601 L1773.41 837.694 L759.687 837.694 L724.109 841.12 L689.613 848.08 L657.245 857.439 L627.991 868.557 L602.738 880.849 L582.253 893.709 L567.16 906.448 L557.917 918.184 L554.804 926.898  Z" fill="#ffffff" fill-rule="evenodd" fill-opacity="1"/>
<polyline clip-path="url(#clip492)" style="stroke:#ffffff; stroke-linecap:round; stroke-linejoin:round; stroke-width:8; stroke-opacity:1; fill:none" points="554.804,926.898 557.917,935.612 567.16,947.348 582.253,960.088 602.738,972.947 627.991,985.24 657.245,996.358 689.613,1005.72 724.109,1012.68 759.687,1016.1 1773.41,1016.1 1824.99,1014.19 1876.57,1009.69 1928.15,1003.06 1979.73,994.522 2031.31,984.212 2082.89,972.226 2134.47,958.64 2186.05,943.514 2237.63,926.898 "/>
<polyline clip-path="url(#clip492)" style="stroke:#000000; stroke-linecap:round; stroke-linejoin:round; stroke-width:8; stroke-opacity:1; fill:none" points="554.804,926.898 557.917,918.184 567.16,906.448 582.253,893.709 602.738,880.849 627.991,868.557 657.245,857.439 689.613,848.08 724.109,841.12 759.687,837.694 1773.41,837.694 1824.99,839.601 1876.57,844.11 1928.15,850.738 1979.73,859.275 2031.31,869.584 2082.89,881.57 2134.47,895.156 2186.05,910.283 2237.63,926.898 "/>
<polyline clip-path="url(#clip492)" style="stroke:#000000; stroke-linecap:round; stroke-linejoin:round; stroke-width:8; stroke-opacity:1; fill:none" points="554.804,926.898 557.917,935.612 567.16,947.348 582.253,960.088 602.738,972.947 627.991,985.24 657.245,996.358 689.613,1005.72 724.109,1012.68 759.687,1016.1 1773.41,1016.1 1824.99,1014.19 1876.57,1009.69 1928.15,1003.06 1979.73,994.522 2031.31,984.212 2082.89,972.226 2134.47,958.64 2186.05,943.514 2237.63,926.898 "/>
<polyline clip-path="url(#clip492)" style="stroke:#000000; stroke-linecap:round; stroke-linejoin:round; stroke-width:8; stroke-opacity:0.5; fill:none" points="1337.91,652.046 1487.7,652.046 "/>
<polyline clip-path="url(#clip492)" style="stroke:#000000; stroke-linecap:round; stroke-linejoin:round; stroke-width:8; stroke-opacity:0.5; fill:none" points="1337.91,1201.75 1487.7,1201.75 "/>
<polyline clip-path="url(#clip492)" style="stroke:#000000; stroke-linecap:round; stroke-linejoin:round; stroke-width:8; stroke-opacity:1; fill:none" points="1831.86,1016.1 1838.47,1013.87 1844.76,1007.27 1850.4,996.641 1855.1,982.516 1858.65,965.602 1860.85,946.748 1861.59,926.898 "/>
<polyline clip-path="url(#clip492)" style="stroke:#000000; stroke-linecap:round; stroke-linejoin:round; stroke-width:8; stroke-opacity:1; fill:none" points="1831.86,837.694 1838.47,839.93 1844.76,846.528 1850.4,857.155 1855.1,871.28 1858.65,888.194 1860.85,907.048 1861.59,926.898 "/>
<path clip-path="url(#clip492)" d="M1917.23 926.898 L2000.27 946.828 L2116.53 946.828 L2249.4 926.898 L2249.4 926.898 L2116.53 906.968 L2000.27 906.968 L1917.23 926.898  Z" fill="#000000" fill-rule="evenodd" fill-opacity="0.8"/>
<polyline clip-path="url(#clip492)" style="stroke:#000000; stroke-linecap:round; stroke-linejoin:round; stroke-width:8; stroke-opacity:0.8; fill:none" points="1917.23,926.898 2000.27,946.828 2116.53,946.828 2249.4,926.898 "/>
<polyline clip-path="url(#clip492)" style="stroke:#000000; stroke-linecap:round; stroke-linejoin:round; stroke-width:8; stroke-opacity:1; fill:none" points="554.804,926.898 554.804,926.898 "/>
<polyline clip-path="url(#clip492)" style="stroke:#000000; stroke-linecap:round; stroke-linejoin:round; stroke-width:8; stroke-opacity:1; fill:none" points="554.804,926.898 554.804,926.898 "/>
<circle clip-path="url(#clip492)" cx="1438.92" cy="926.898" r="14.4" fill="#000000" fill-rule="evenodd" fill-opacity="1" stroke="none"/>
<polyline clip-path="url(#clip492)" style="stroke:#000000; stroke-linecap:round; stroke-linejoin:round; stroke-width:8; stroke-opacity:1; fill:none" points="1289.69,688.949 1289.69,615.143 1466.82,627.444 1466.82,676.648 1289.69,688.949 "/>
<polyline clip-path="url(#clip492)" style="stroke:#000000; stroke-linecap:round; stroke-linejoin:round; stroke-width:8; stroke-opacity:1; fill:none" points="1289.69,1164.85 1289.69,1238.65 1466.82,1226.35 1466.82,1177.15 1289.69,1164.85 "/>
<polyline clip-path="url(#clip492)" style="stroke:#000000; stroke-linecap:round; stroke-linejoin:round; stroke-width:8; stroke-opacity:1; fill:none" points="1315.9,926.898 1412.71,926.898 "/>
<line clip-path="url(#clip492)" x1="1315.9" y1="942.898" x2="1315.9" y2="910.898" style="stroke:#000000; stroke-width:4; stroke-opacity:1"/>
<line clip-path="url(#clip492)" x1="1412.71" y1="942.898" x2="1412.71" y2="910.898" style="stroke:#000000; stroke-width:4; stroke-opacity:1"/>
</svg>
