<?xml version="1.0" encoding="utf-8"?>
<svg xmlns="http://www.w3.org/2000/svg" xmlns:xlink="http://www.w3.org/1999/xlink" width="650" height="500" viewBox="0 0 2600 2000">
<defs>
  <clipPath id="clip870">
    <rect x="0" y="0" width="2600" height="2000"/>
  </clipPath>
</defs>
<path clip-path="url(#clip870)" d="M0 2000 L2600 2000 L2600 0 L0 0  Z" fill="#ffffff" fill-rule="evenodd" fill-opacity="1"/>
<defs>
  <clipPath id="clip871">
    <rect x="520" y="0" width="1821" height="1821"/>
  </clipPath>
</defs>
<path clip-path="url(#clip870)" d="M298.69 1759.31 L2505.51 1759.31 L2505.51 94.4882 L298.69 94.4882  Z" fill="#ffffff" fill-rule="evenodd" fill-opacity="1"/>
<defs>
  <clipPath id="clip872">
    <rect x="298" y="94" width="2208" height="1666"/>
  </clipPath>
</defs>
<path clip-path="url(#clip872)" d="M2053.9 952.556 L2053.9 952.556 L2205.32 1183.58 L2237.61 1183.58 L2183.05 952.556 L2183.05 952.556 L2183.05 901.24 L2183.05 901.24 L2237.61 670.216 L2205.32 670.216 L2053.9 901.24 L2053.9 901.24  Z" fill="#ffffff" fill-rule="evenodd" fill-opacity="0.8"/>
<polyline clip-path="url(#clip872)" style="stroke:#000000; stroke-linecap:round; stroke-linejoin:round; stroke-width:8; stroke-opacity:0.8; fill:none" points="2053.9,952.556 2053.9,952.556 2205.32,1183.58 2237.61,1183.58 2183.05,952.556 "/>
<polyline clip-path="url(#clip872)" style="stroke:#000000; stroke-linecap:round; stroke-linejoin:round; stroke-width:8; stroke-opacity:0.8; fill:none" points="2053.9,901.24 2053.9,901.24 2205.32,670.216 2237.61,670.216 2183.05,901.24 "/>
<polyline clip-path="url(#clip872)" style="stroke:#000000; stroke-linecap:round; stroke-linejoin:round; stroke-width:8; stroke-opacity:1; fill:none" points="1211.3,866.175 1313.37,703.09 1621,141.606 1667.93,141.606 1444.75,703.09 1398.99,866.175 "/>
<polyline clip-path="url(#clip872)" style="stroke:#000000; stroke-linecap:round; stroke-linejoin:round; stroke-width:8; stroke-opacity:1; fill:none" points="1211.3,987.622 1313.37,1150.71 1621,1712.19 1667.93,1712.19 1444.75,1150.71 1398.99,987.622 "/>
<path clip-path="url(#clip872)" d="M566.589 926.898 L569.707 936.03 L578.968 947.767 L594.089 960.234 L614.611 972.618 L639.911 984.285 L669.22 994.68 L701.648 1003.28 L736.208 1009.51 L771.852 1012.42 L1977.27 1012.42 L2002.36 1011.37 L2027.45 1008.2 L2052.54 1002.92 L2077.62 995.53 L2102.71 986.027 L2127.8 974.413 L2152.89 960.686 L2177.97 944.848 L2203.06 926.898 L2203.06 926.898 L2203.06 926.898 L2203.06 926.898 L2177.97 908.948 L2152.89 893.11 L2127.8 879.384 L2102.71 867.769 L2077.62 858.266 L2052.54 850.875 L2027.45 845.596 L2002.36 842.428 L1977.27 841.372 L771.852 841.372 L736.208 844.289 L701.648 850.521 L669.22 859.116 L639.911 869.511 L614.611 881.178 L594.089 893.562 L578.968 906.03 L569.707 917.766 L566.589 926.898  Z" fill="#ffffff" fill-rule="evenodd" fill-opacity="1"/>
<polyline clip-path="url(#clip872)" style="stroke:#ffffff; stroke-linecap:round; stroke-linejoin:round; stroke-width:8; stroke-opacity:1; fill:none" points="566.589,926.898 569.707,936.03 578.968,947.767 594.089,960.234 614.611,972.618 639.911,984.285 669.22,994.68 701.648,1003.28 736.208,1009.51 771.852,1012.42 1977.27,1012.42 2002.36,1011.37 2027.45,1008.2 2052.54,1002.92 2077.62,995.53 2102.71,986.027 2127.8,974.413 2152.89,960.686 2177.97,944.848 2203.06,926.898 "/>
<polyline clip-path="url(#clip872)" style="stroke:#000000; stroke-linecap:round; stroke-linejoin:round; stroke-width:8; stroke-opacity:1; fill:none" points="566.589,926.898 569.707,917.766 578.968,906.03 594.089,893.562 614.611,881.178 639.911,869.511 669.22,859.116 701.648,850.521 736.208,844.289 771.852,841.372 1977.27,841.372 2002.36,842.428 2027.45,845.596 2052.54,850.875 2077.62,858.266 2102.71,867.769 2127.8,879.384 2152.89,893.11 2177.97,908.948 2203.06,926.898 "/>
<polyline clip-path="url(#clip872)" style="stroke:#000000; stroke-linecap:round; stroke-linejoin:round; stroke-width:8; stroke-opacity:1; fill:none" points="566.589,926.898 569.707,936.03 578.968,947.767 594.089,960.234 614.611,972.618 639.911,984.285 669.22,994.68 701.648,1003.28 736.208,1009.51 771.852,1012.42 1977.27,1012.42 2002.36,1011.37 2027.45,1008.2 2052.54,1002.92 2077.62,995.53 2102.71,986.027 2127.8,974.413 2152.89,960.686 2177.97,944.848 2203.06,926.898 "/>
<polyline clip-path="url(#clip872)" style="stroke:#000000; stroke-linecap:round; stroke-linejoin:round; stroke-width:8; stroke-opacity:0.5; fill:none" points="1313.37,703.09 1444.75,703.09 "/>
<polyline clip-path="url(#clip872)" style="stroke:#000000; stroke-linecap:round; stroke-linejoin:round; stroke-width:8; stroke-opacity:0.5; fill:none" points="1313.37,1150.71 1444.75,1150.71 "/>
<polyline clip-path="url(#clip872)" style="stroke:#000000; stroke-linecap:round; stroke-linejoin:round; stroke-width:8; stroke-opacity:1; fill:none" points="1948.76,1012.42 1955.11,1010.28 1961.13,1003.95 1966.54,993.765 1971.05,980.223 1974.45,964.007 1976.56,945.929 1977.27,926.898 "/>
<polyline clip-path="url(#clip872)" style="stroke:#000000; stroke-linecap:round; stroke-linejoin:round; stroke-width:8; stroke-opacity:1; fill:none" points="1948.76,841.372 1955.11,843.516 1961.13,849.842 1966.54,860.031 1971.05,873.573 1974.45,889.79 1976.56,907.867 1977.27,926.898 "/>
<polyline clip-path="url(#clip872)" style="stroke:#000000; stroke-linecap:round; stroke-linejoin:round; stroke-width:8; stroke-opacity:1; fill:none" points="1628.82,926.898 1629.85,945.18 1632.89,962.546 1637.79,978.123 1644.29,991.133 1652.08,1000.92 1660.76,1007 1669.9,1009.06 1925.93,1009.06 1935.07,1007 1943.75,1000.92 1951.54,991.133 1958.05,978.123 1962.94,962.546 1965.98,945.18 1967.01,926.898 "/>
<polyline clip-path="url(#clip872)" style="stroke:#000000; stroke-linecap:round; stroke-linejoin:round; stroke-width:8; stroke-opacity:1; fill:none" points="1628.82,926.898 1629.85,908.616 1632.89,891.251 1637.79,875.673 1644.29,862.664 1652.08,852.875 1660.76,846.799 1669.9,844.739 1925.93,844.739 1935.07,846.799 1943.75,852.875 1951.54,862.664 1958.05,875.673 1962.94,891.251 1965.98,908.616 1967.01,926.898 "/>
<path clip-path="url(#clip872)" d="M1973.4 926.898 L2027.14 941.944 L2102.37 941.944 L2188.34 926.898 L2188.34 926.898 L2102.37 911.852 L2027.14 911.852 L1973.4 926.898  Z" fill="#000000" fill-rule="evenodd" fill-opacity="0.8"/>
<polyline clip-path="url(#clip872)" style="stroke:#000000; stroke-linecap:round; stroke-linejoin:round; stroke-width:8; stroke-opacity:0.8; fill:none" points="1973.4,926.898 2027.14,941.944 2102.37,941.944 2188.34,926.898 "/>
<circle clip-path="url(#clip872)" cx="1436.32" cy="926.898" r="14.4" fill="#000000" fill-rule="evenodd" fill-opacity="1" stroke="none"/>
<polyline clip-path="url(#clip872)" style="stroke:#000000; stroke-linecap:round; stroke-linejoin:round; stroke-width:8; stroke-opacity:1; fill:none" points="566.589,926.898 566.589,926.898 "/>
<polyline clip-path="url(#clip872)" style="stroke:#000000; stroke-linecap:round; stroke-linejoin:round; stroke-width:8; stroke-opacity:1; fill:none" points="566.589,926.898 566.589,926.898 "/>
<polyline clip-path="url(#clip872)" style="stroke:#000000; stroke-linecap:round; stroke-linejoin:round; stroke-width:8; stroke-opacity:1; fill:none" points="1279.69,730.899 1279.69,675.281 1413.18,684.55 1413.18,721.629 1279.69,730.899 "/>
<polyline clip-path="url(#clip872)" style="stroke:#000000; stroke-linecap:round; stroke-linejoin:round; stroke-width:8; stroke-opacity:1; fill:none" points="1279.69,1122.9 1279.69,1178.52 1413.18,1169.25 1413.18,1132.17 1279.69,1122.9 "/>
<polyline clip-path="url(#clip872)" style="stroke:#000000; stroke-linecap:round; stroke-linejoin:round; stroke-width:8; stroke-opacity:1; fill:none" points="1320,926.898 1428.93,926.898 "/>
<line clip-path="url(#clip872)" x1="1320" y1="942.898" x2="1320" y2="910.898" style="stroke:#000000; stroke-width:4; stroke-opacity:1"/>
<line clip-path="url(#clip872)" x1="1428.93" y1="942.898" x2="1428.93" y2="910.898" style="stroke:#000000; stroke-width:4; stroke-opacity:1"/>
</svg>
