<?xml version="1.0" encoding="utf-8"?>
<svg xmlns="http://www.w3.org/2000/svg" xmlns:xlink="http://www.w3.org/1999/xlink" width="650" height="500" viewBox="0 0 2600 2000">
<defs>
  <clipPath id="clip230">
    <rect x="0" y="0" width="2600" height="2000"/>
  </clipPath>
</defs>
<path clip-path="url(#clip230)" d="M0 2000 L2600 2000 L2600 0 L0 0  Z" fill="#ffffff" fill-rule="evenodd" fill-opacity="1"/>
<defs>
  <clipPath id="clip231">
    <rect x="520" y="0" width="1821" height="1821"/>
  </clipPath>
</defs>
<path clip-path="url(#clip230)" d="M298.69 1759.31 L2505.51 1759.31 L2505.51 94.4882 L298.69 94.4882  Z" fill="#ffffff" fill-rule="evenodd" fill-opacity="1"/>
<defs>
  <clipPath id="clip232">
    <rect x="298" y="94" width="2208" height="1666"/>
  </clipPath>
</defs>
<path clip-path="url(#clip232)" d="M2213.2 958.002 L2213.2 958.002 L2402.69 1247.23 L2443.05 1247.23 L2374.64 958.002 L2374.64 958.002 L2374.64 895.795 L2374.64 895.795 L2443.05 606.564 L2402.69 606.564 L2213.2 895.795 L2213.2 895.795  Z" fill="#ffffff" fill-rule="evenodd" fill-opacity="0.8"/>
<polyline clip-path="url(#clip232)" style="stroke:#000000; stroke-linecap:round; stroke-linejoin:round; stroke-width:8; stroke-opacity:0.8; fill:none" points="2213.2,958.002 2213.2,958.002 2402.69,1247.23 2443.05,1247.23 2374.64,958.002 "/>
<polyline clip-path="url(#clip232)" style="stroke:#000000; stroke-linecap:round; stroke-linejoin:round; stroke-width:8; stroke-opacity:0.8; fill:none" points="2213.2,895.795 2213.2,895.795 2402.69,606.564 2443.05,606.564 2374.64,895.795 "/>
<polyline clip-path="url(#clip232)" style="stroke:#000000; stroke-linecap:round; stroke-linejoin:round; stroke-width:8; stroke-opacity:1; fill:none" points="1202.2,853.287 1305.85,704.549 1624.57,146.727 1689.37,146.727 1487.29,704.549 1461.4,853.287 "/>
<polyline clip-path="url(#clip232)" style="stroke:#000000; stroke-linecap:round; stroke-linejoin:round; stroke-width:8; stroke-opacity:1; fill:none" points="1202.2,1000.51 1305.85,1149.25 1624.57,1707.07 1689.37,1707.07 1487.29,1149.25 1461.4,1000.51 "/>
<path clip-path="url(#clip232)" d="M361.147 926.898 L364.927 937.968 L376.153 952.196 L394.483 967.31 L419.361 982.321 L450.031 996.465 L485.56 1009.07 L524.87 1019.49 L566.766 1027.04 L609.974 1030.58 L2122.25 1030.58 L2152.67 1029.3 L2183.08 1025.46 L2213.49 1019.06 L2243.9 1010.1 L2274.32 998.577 L2304.73 984.497 L2335.14 967.857 L2365.55 948.658 L2395.96 926.898 L2395.96 926.898 L2395.96 926.898 L2395.96 926.898 L2365.55 905.139 L2335.14 885.939 L2304.73 869.299 L2274.32 855.22 L2243.9 843.7 L2213.49 834.74 L2183.08 828.34 L2152.67 824.5 L2122.25 823.22 L609.974 823.22 L566.766 826.756 L524.87 834.311 L485.56 844.73 L450.031 857.331 L419.361 871.475 L394.483 886.487 L376.153 901.601 L364.927 915.828 L361.147 926.898  Z" fill="#ffffff" fill-rule="evenodd" fill-opacity="1"/>
<polyline clip-path="url(#clip232)" style="stroke:#ffffff; stroke-linecap:round; stroke-linejoin:round; stroke-width:8; stroke-opacity:1; fill:none" points="361.147,926.898 364.927,937.968 376.153,952.196 394.483,967.31 419.361,982.321 450.031,996.465 485.56,1009.07 524.87,1019.49 566.766,1027.04 609.974,1030.58 2122.25,1030.58 2152.67,1029.3 2183.08,1025.46 2213.49,1019.06 2243.9,1010.1 2274.32,998.577 2304.73,984.497 2335.14,967.857 2365.55,948.658 2395.96,926.898 "/>
<polyline clip-path="url(#clip232)" style="stroke:#000000; stroke-linecap:round; stroke-linejoin:round; stroke-width:8; stroke-opacity:1; fill:none" points="361.147,926.898 364.927,915.828 376.153,901.601 394.483,886.487 419.361,871.475 450.031,857.331 485.56,844.73 524.87,834.311 566.766,826.756 609.974,823.22 2122.25,823.22 2152.67,824.5 2183.08,828.34 2213.49,834.74 2243.9,843.7 2274.32,855.22 2304.73,869.299 2335.14,885.939 2365.55,905.139 2395.96,926.898 "/>
<polyline clip-path="url(#clip232)" style="stroke:#000000; stroke-linecap:round; stroke-linejoin:round; stroke-width:8; stroke-opacity:1; fill:none" points="361.147,926.898 364.927,937.968 376.153,952.196 394.483,967.31 419.361,982.321 450.031,996.465 485.56,1009.07 524.87,1019.49 566.766,1027.04 609.974,1030.58 2122.25,1030.58 2152.67,1029.3 2183.08,1025.46 2213.49,1019.06 2243.9,1010.1 2274.32,998.577 2304.73,984.497 2335.14,967.857 2365.55,948.658 2395.96,926.898 "/>
<polyline clip-path="url(#clip232)" style="stroke:#000000; stroke-linecap:round; stroke-linejoin:round; stroke-width:8; stroke-opacity:0.5; fill:none" points="1305.85,704.549 1487.29,704.549 "/>
<polyline clip-path="url(#clip232)" style="stroke:#000000; stroke-linecap:round; stroke-linejoin:round; stroke-width:8; stroke-opacity:0.5; fill:none" points="1305.85,1149.25 1487.29,1149.25 "/>
<polyline clip-path="url(#clip232)" style="stroke:#000000; stroke-linecap:round; stroke-linejoin:round; stroke-width:8; stroke-opacity:1; fill:none" points="2087.69,1030.58 2095.39,1027.98 2102.69,1020.31 2109.24,1007.96 2114.71,991.54 2118.83,971.882 2121.39,949.969 2122.25,926.898 "/>
<polyline clip-path="url(#clip232)" style="stroke:#000000; stroke-linecap:round; stroke-linejoin:round; stroke-width:8; stroke-opacity:1; fill:none" points="2087.69,823.22 2095.39,825.82 2102.69,833.487 2109.24,845.839 2114.71,862.256 2118.83,881.914 2121.39,903.828 2122.25,926.898 "/>
<polyline clip-path="url(#clip232)" style="stroke:#000000; stroke-linecap:round; stroke-linejoin:round; stroke-width:8; stroke-opacity:1; fill:none" points="1648.83,926.898 1650.08,949.06 1653.76,970.111 1659.69,988.995 1667.58,1004.77 1677.02,1016.63 1687.54,1024 1698.63,1026.49 2060.01,1026.49 2071.1,1024 2081.62,1016.63 2091.06,1004.77 2098.95,988.995 2104.88,970.111 2108.56,949.06 2109.81,926.898 "/>
<polyline clip-path="url(#clip232)" style="stroke:#000000; stroke-linecap:round; stroke-linejoin:round; stroke-width:8; stroke-opacity:1; fill:none" points="1648.83,926.898 1650.08,904.736 1653.76,883.685 1659.69,864.801 1667.58,849.031 1677.02,837.165 1687.54,829.799 1698.63,827.302 2060.01,827.302 2071.1,829.799 2081.62,837.165 2091.06,849.031 2098.95,864.801 2104.88,883.685 2108.56,904.736 2109.81,926.898 "/>
<path clip-path="url(#clip232)" d="M2130.61 926.898 L2187.59 942.854 L2267.37 942.854 L2358.55 926.898 L2358.55 926.898 L2267.37 910.942 L2187.59 910.942 L2130.61 926.898  Z" fill="#000000" fill-rule="evenodd" fill-opacity="0.8"/>
<polyline clip-path="url(#clip232)" style="stroke:#000000; stroke-linecap:round; stroke-linejoin:round; stroke-width:8; stroke-opacity:0.8; fill:none" points="2130.61,926.898 2187.59,942.854 2267.37,942.854 2358.55,926.898 "/>
<circle clip-path="url(#clip232)" cx="1448.77" cy="926.898" r="14.4" fill="#000000" fill-rule="evenodd" fill-opacity="1" stroke="none"/>
<polyline clip-path="url(#clip232)" style="stroke:#000000; stroke-linecap:round; stroke-linejoin:round; stroke-width:8; stroke-opacity:1; fill:none" points="361.147,926.898 361.147,926.898 "/>
<polyline clip-path="url(#clip232)" style="stroke:#000000; stroke-linecap:round; stroke-linejoin:round; stroke-width:8; stroke-opacity:1; fill:none" points="361.147,926.898 361.147,926.898 "/>
<polyline clip-path="url(#clip232)" style="stroke:#000000; stroke-linecap:round; stroke-linejoin:round; stroke-width:8; stroke-opacity:1; fill:none" points="1265.03,762.173 1265.03,646.926 1541.62,666.133 1541.62,742.965 1265.03,762.173 "/>
<polyline clip-path="url(#clip232)" style="stroke:#000000; stroke-linecap:round; stroke-linejoin:round; stroke-width:8; stroke-opacity:1; fill:none" points="1265.03,1091.62 1265.03,1206.87 1541.62,1187.66 1541.62,1110.83 1265.03,1091.62 "/>
<polyline clip-path="url(#clip232)" style="stroke:#000000; stroke-linecap:round; stroke-linejoin:round; stroke-width:8; stroke-opacity:1; fill:none" points="1281.69,926.898 1439.02,926.898 "/>
<line clip-path="url(#clip232)" x1="1281.69" y1="942.898" x2="1281.69" y2="910.898" style="stroke:#000000; stroke-width:4; stroke-opacity:1"/>
<line clip-path="url(#clip232)" x1="1439.02" y1="942.898" x2="1439.02" y2="910.898" style="stroke:#000000; stroke-width:4; stroke-opacity:1"/>
</svg>
