<?xml version="1.0" encoding="utf-8"?>
<svg xmlns="http://www.w3.org/2000/svg" xmlns:xlink="http://www.w3.org/1999/xlink" width="650" height="500" viewBox="0 0 2600 2000">
<defs>
  <clipPath id="clip670">
    <rect x="0" y="0" width="2600" height="2000"/>
  </clipPath>
</defs>
<path clip-path="url(#clip670)" d="M0 2000 L2600 2000 L2600 0 L0 0  Z" fill="#ffffff" fill-rule="evenodd" fill-opacity="1"/>
<defs>
  <clipPath id="clip671">
    <rect x="520" y="0" width="1821" height="1821"/>
  </clipPath>
</defs>
<path clip-path="url(#clip670)" d="M298.69 1759.31 L2505.51 1759.31 L2505.51 94.4882 L298.69 94.4882  Z" fill="#ffffff" fill-rule="evenodd" fill-opacity="1"/>
<defs>
  <clipPath id="clip672">
    <rect x="298" y="94" width="2208" height="1666"/>
  </clipPath>
</defs>
<path clip-path="url(#clip672)" d="M2228.12 959.349 L2228.12 959.349 L2405.18 1229.21 L2443.05 1229.21 L2379.6 959.349 L2379.6 959.349 L2379.6 894.447 L2379.6 894.447 L2443.05 624.583 L2405.18 624.583 L2228.12 894.447 L2228.12 894.447  Z" fill="#ffffff" fill-rule="evenodd" fill-opacity="0.8"/>
<polyline clip-path="url(#clip672)" style="stroke:#000000; stroke-linecap:round; stroke-linejoin:round; stroke-width:8; stroke-opacity:0.8; fill:none" points="2228.12,959.349 2228.12,959.349 2405.18,1229.21 2443.05,1229.21 2379.6,959.349 "/>
<polyline clip-path="url(#clip672)" style="stroke:#000000; stroke-linecap:round; stroke-linejoin:round; stroke-width:8; stroke-opacity:0.8; fill:none" points="2228.12,894.447 2228.12,894.447 2405.18,624.583 2443.05,624.583 2379.6,894.447 "/>
<polyline clip-path="url(#clip672)" style="stroke:#000000; stroke-linecap:round; stroke-linejoin:round; stroke-width:8; stroke-opacity:1; fill:none" points="1221.75,850.097 1318.38,713.159 1624.67,176.935 1686.84,176.935 1492.44,713.159 1470.41,850.097 "/>
<polyline clip-path="url(#clip672)" style="stroke:#000000; stroke-linecap:round; stroke-linejoin:round; stroke-width:8; stroke-opacity:1; fill:none" points="1221.75,1003.7 1318.38,1140.64 1624.67,1676.86 1686.84,1676.86 1492.44,1140.64 1470.41,1003.7 "/>
<path clip-path="url(#clip672)" d="M361.147 926.898 L365.091 938.448 L376.803 953.292 L395.928 969.061 L421.884 984.723 L453.883 999.48 L490.952 1012.63 L531.965 1023.5 L575.677 1031.38 L620.758 1035.07 L2126.45 1035.07 L2158.18 1033.73 L2189.91 1029.73 L2221.65 1023.05 L2253.38 1013.7 L2285.11 1001.68 L2316.84 986.993 L2348.57 969.632 L2380.3 949.601 L2412.03 926.898 L2412.03 926.898 L2412.03 926.898 L2412.03 926.898 L2380.3 904.196 L2348.57 884.164 L2316.84 866.803 L2285.11 852.113 L2253.38 840.094 L2221.65 830.746 L2189.91 824.069 L2158.18 820.062 L2126.45 818.727 L620.758 818.727 L575.677 822.416 L531.965 830.298 L490.952 841.169 L453.883 854.316 L421.884 869.073 L395.928 884.735 L376.803 900.504 L365.091 915.349 L361.147 926.898  Z" fill="#ffffff" fill-rule="evenodd" fill-opacity="1"/>
<polyline clip-path="url(#clip672)" style="stroke:#ffffff; stroke-linecap:round; stroke-linejoin:round; stroke-width:8; stroke-opacity:1; fill:none" points="361.147,926.898 365.091,938.448 376.803,953.292 395.928,969.061 421.884,984.723 453.883,999.48 490.952,1012.63 531.965,1023.5 575.677,1031.38 620.758,1035.07 2126.45,1035.07 2158.18,1033.73 2189.91,1029.73 2221.65,1023.05 2253.38,1013.7 2285.11,1001.68 2316.84,986.993 2348.57,969.632 2380.3,949.601 2412.03,926.898 "/>
<polyline clip-path="url(#clip672)" style="stroke:#000000; stroke-linecap:round; stroke-linejoin:round; stroke-width:8; stroke-opacity:1; fill:none" points="361.147,926.898 365.091,915.349 376.803,900.504 395.928,884.735 421.884,869.073 453.883,854.316 490.952,841.169 531.965,830.298 575.677,822.416 620.758,818.727 2126.45,818.727 2158.18,820.062 2189.91,824.069 2221.65,830.746 2253.38,840.094 2285.11,852.113 2316.84,866.803 2348.57,884.164 2380.3,904.196 2412.03,926.898 "/>
<polyline clip-path="url(#clip672)" style="stroke:#000000; stroke-linecap:round; stroke-linejoin:round; stroke-width:8; stroke-opacity:1; fill:none" points="361.147,926.898 365.091,938.448 376.803,953.292 395.928,969.061 421.884,984.723 453.883,999.48 490.952,1012.63 531.965,1023.5 575.677,1031.38 620.758,1035.07 2126.45,1035.07 2158.18,1033.73 2189.91,1029.73 2221.65,1023.05 2253.38,1013.7 2285.11,1001.68 2316.84,986.993 2348.57,969.632 2380.3,949.601 2412.03,926.898 "/>
<polyline clip-path="url(#clip672)" style="stroke:#000000; stroke-linecap:round; stroke-linejoin:round; stroke-width:8; stroke-opacity:0.5; fill:none" points="1318.38,713.159 1492.44,713.159 "/>
<polyline clip-path="url(#clip672)" style="stroke:#000000; stroke-linecap:round; stroke-linejoin:round; stroke-width:8; stroke-opacity:0.5; fill:none" points="1318.38,1140.64 1492.44,1140.64 "/>
<polyline clip-path="url(#clip672)" style="stroke:#000000; stroke-linecap:round; stroke-linejoin:round; stroke-width:8; stroke-opacity:1; fill:none" points="2090.4,1035.07 2098.42,1032.36 2106.04,1024.36 2112.88,1011.47 2118.59,994.342 2122.88,973.832 2125.55,950.968 2126.45,926.898 "/>
<polyline clip-path="url(#clip672)" style="stroke:#000000; stroke-linecap:round; stroke-linejoin:round; stroke-width:8; stroke-opacity:1; fill:none" points="2090.4,818.727 2098.42,821.439 2106.04,829.439 2112.88,842.327 2118.59,859.455 2122.88,879.964 2125.55,902.828 2126.45,926.898 "/>
<polyline clip-path="url(#clip672)" style="stroke:#000000; stroke-linecap:round; stroke-linejoin:round; stroke-width:8; stroke-opacity:1; fill:none" points="1704.63,926.898 1705.94,950.021 1709.78,971.984 1715.97,991.686 1724.19,1008.14 1734.05,1020.52 1745.03,1028.21 1756.59,1030.81 2061.52,1030.81 2073.08,1028.21 2084.06,1020.52 2093.91,1008.14 2102.14,991.686 2108.33,971.984 2112.17,950.021 2113.47,926.898 "/>
<polyline clip-path="url(#clip672)" style="stroke:#000000; stroke-linecap:round; stroke-linejoin:round; stroke-width:8; stroke-opacity:1; fill:none" points="1704.63,926.898 1705.94,903.775 1709.78,881.812 1715.97,862.11 1724.19,845.656 1734.05,833.276 1745.03,825.591 1756.59,822.986 2061.52,822.986 2073.08,825.591 2084.06,833.276 2093.91,845.656 2102.14,862.11 2108.33,881.812 2112.17,903.775 2113.47,926.898 "/>
<path clip-path="url(#clip672)" d="M2144.22 926.898 L2198.02 941.962 L2273.34 941.962 L2359.42 926.898 L2359.42 926.898 L2273.34 911.835 L2198.02 911.835 L2144.22 926.898  Z" fill="#000000" fill-rule="evenodd" fill-opacity="0.8"/>
<polyline clip-path="url(#clip672)" style="stroke:#000000; stroke-linecap:round; stroke-linejoin:round; stroke-width:8; stroke-opacity:0.8; fill:none" points="2144.22,926.898 2198.02,941.962 2273.34,941.962 2359.42,926.898 "/>
<circle clip-path="url(#clip672)" cx="1465.77" cy="926.898" r="14.4" fill="#000000" fill-rule="evenodd" fill-opacity="1" stroke="none"/>
<polyline clip-path="url(#clip672)" style="stroke:#000000; stroke-linecap:round; stroke-linejoin:round; stroke-width:8; stroke-opacity:1; fill:none" points="361.147,926.898 361.147,926.898 "/>
<polyline clip-path="url(#clip672)" style="stroke:#000000; stroke-linecap:round; stroke-linejoin:round; stroke-width:8; stroke-opacity:1; fill:none" points="361.147,926.898 361.147,926.898 "/>
<polyline clip-path="url(#clip672)" style="stroke:#000000; stroke-linecap:round; stroke-linejoin:round; stroke-width:8; stroke-opacity:1; fill:none" points="1227.75,798.456 1227.75,764.029 1310.38,769.767 1310.38,792.718 1227.75,798.456 "/>
<polyline clip-path="url(#clip672)" style="stroke:#000000; stroke-linecap:round; stroke-linejoin:round; stroke-width:8; stroke-opacity:1; fill:none" points="1227.75,1055.34 1227.75,1089.77 1310.38,1084.03 1310.38,1061.08 1227.75,1055.34 "/>
<polyline clip-path="url(#clip672)" style="stroke:#000000; stroke-linecap:round; stroke-linejoin:round; stroke-width:8; stroke-opacity:1; fill:none" points="1316.27,659.517 1316.27,625.09 1398.89,630.828 1398.89,653.779 1316.27,659.517 "/>
<polyline clip-path="url(#clip672)" style="stroke:#000000; stroke-linecap:round; stroke-linejoin:round; stroke-width:8; stroke-opacity:1; fill:none" points="1316.27,1194.28 1316.27,1228.71 1398.89,1222.97 1398.89,1200.02 1316.27,1194.28 "/>
<polyline clip-path="url(#clip672)" style="stroke:#000000; stroke-linecap:round; stroke-linejoin:round; stroke-width:8; stroke-opacity:1; fill:none" points="1395.63,520.578 1395.63,486.151 1478.25,491.889 1478.25,514.84 1395.63,520.578 "/>
<polyline clip-path="url(#clip672)" style="stroke:#000000; stroke-linecap:round; stroke-linejoin:round; stroke-width:8; stroke-opacity:1; fill:none" points="1395.63,1333.22 1395.63,1367.65 1478.25,1361.91 1478.25,1338.96 1395.63,1333.22 "/>
<polyline clip-path="url(#clip672)" style="stroke:#000000; stroke-linecap:round; stroke-linejoin:round; stroke-width:8; stroke-opacity:1; fill:none" points="1474.99,381.639 1474.99,347.212 1557.62,352.95 1557.62,375.901 1474.99,381.639 "/>
<polyline clip-path="url(#clip672)" style="stroke:#000000; stroke-linecap:round; stroke-linejoin:round; stroke-width:8; stroke-opacity:1; fill:none" points="1474.99,1472.16 1474.99,1506.58 1557.62,1500.85 1557.62,1477.89 1474.99,1472.16 "/>
<polyline clip-path="url(#clip672)" style="stroke:#000000; stroke-linecap:round; stroke-linejoin:round; stroke-width:8; stroke-opacity:1; fill:none" points="1280.19,926.898 1455.87,926.898 "/>
<line clip-path="url(#clip672)" x1="1280.19" y1="942.898" x2="1280.19" y2="910.898" style="stroke:#000000; stroke-width:4; stroke-opacity:1"/>
<line clip-path="url(#clip672)" x1="1455.87" y1="942.898" x2="1455.87" y2="910.898" style="stroke:#000000; stroke-width:4; stroke-opacity:1"/>
</svg>
