<?xml version="1.0" encoding="utf-8"?>
<svg xmlns="http://www.w3.org/2000/svg" xmlns:xlink="http://www.w3.org/1999/xlink" width="650" height="500" viewBox="0 0 2600 2000">
<defs>
  <clipPath id="clip270">
    <rect x="0" y="0" width="2600" height="2000"/>
  </clipPath>
</defs>
<path clip-path="url(#clip270)" d="M0 2000 L2600 2000 L2600 0 L0 0  Z" fill="#ffffff" fill-rule="evenodd" fill-opacity="1"/>
<defs>
  <clipPath id="clip271">
    <rect x="520" y="0" width="1821" height="1821"/>
  </clipPath>
</defs>
<path clip-path="url(#clip270)" d="M298.69 1759.31 L2505.51 1759.31 L2505.51 94.4882 L298.69 94.4882  Z" fill="#ffffff" fill-rule="evenodd" fill-opacity="1"/>
<defs>
  <clipPath id="clip272">
    <rect x="298" y="94" width="2208" height="1666"/>
  </clipPath>
</defs>
<path clip-path="url(#clip272)" d="M2227.12 959.348 L2227.12 959.348 L2405.01 1230.5 L2443.05 1230.5 L2379.28 959.348 L2379.28 959.348 L2379.28 894.448 L2379.28 894.448 L2443.05 623.298 L2405.01 623.298 L2227.12 894.448 L2227.12 894.448  Z" fill="#ffffff" fill-rule="evenodd" fill-opacity="0.8"/>
<polyline clip-path="url(#clip272)" style="stroke:#000000; stroke-linecap:round; stroke-linejoin:round; stroke-width:8; stroke-opacity:0.8; fill:none" points="2227.12,959.348 2227.12,959.348 2405.01,1230.5 2443.05,1230.5 2379.28,959.348 "/>
<polyline clip-path="url(#clip272)" style="stroke:#000000; stroke-linecap:round; stroke-linejoin:round; stroke-width:8; stroke-opacity:0.8; fill:none" points="2227.12,894.448 2227.12,894.448 2405.01,623.298 2443.05,623.298 2379.28,894.448 "/>
<polyline clip-path="url(#clip272)" style="stroke:#000000; stroke-linecap:round; stroke-linejoin:round; stroke-width:8; stroke-opacity:1; fill:none" points="1216.76,850.1 1313.95,712.272 1621.52,173.826 1683.94,173.826 1488.75,712.272 1466.48,850.1 "/>
<polyline clip-path="url(#clip272)" style="stroke:#000000; stroke-linecap:round; stroke-linejoin:round; stroke-width:8; stroke-opacity:1; fill:none" points="1216.76,1003.7 1313.95,1141.52 1621.52,1679.97 1683.94,1679.97 1488.75,1141.52 1466.48,1003.7 "/>
<path clip-path="url(#clip272)" d="M361.147 926.898 L365.091 938.447 L376.803 953.291 L395.927 969.059 L421.882 984.721 L453.879 999.477 L490.947 1012.62 L531.959 1023.49 L575.668 1031.38 L620.747 1035.07 L2125.73 1035.07 L2157.46 1033.73 L2189.19 1029.72 L2220.92 1023.05 L2252.65 1013.7 L2284.38 1001.68 L2316.1 986.991 L2347.83 969.631 L2379.56 949.6 L2411.29 926.898 L2411.29 926.898 L2411.29 926.898 L2411.29 926.898 L2379.56 904.196 L2347.83 884.166 L2316.1 866.805 L2284.38 852.116 L2252.65 840.097 L2220.92 830.75 L2189.19 824.073 L2157.46 820.067 L2125.73 818.731 L620.747 818.731 L575.668 822.42 L531.959 830.302 L490.947 841.173 L453.879 854.319 L421.882 869.075 L395.927 884.737 L376.803 900.505 L365.091 915.349 L361.147 926.898  Z" fill="#ffffff" fill-rule="evenodd" fill-opacity="1"/>
<polyline clip-path="url(#clip272)" style="stroke:#ffffff; stroke-linecap:round; stroke-linejoin:round; stroke-width:8; stroke-opacity:1; fill:none" points="361.147,926.898 365.091,938.447 376.803,953.291 395.927,969.059 421.882,984.721 453.879,999.477 490.947,1012.62 531.959,1023.49 575.668,1031.38 620.747,1035.07 2125.73,1035.07 2157.46,1033.73 2189.19,1029.72 2220.92,1023.05 2252.65,1013.7 2284.38,1001.68 2316.1,986.991 2347.83,969.631 2379.56,949.6 2411.29,926.898 "/>
<polyline clip-path="url(#clip272)" style="stroke:#000000; stroke-linecap:round; stroke-linejoin:round; stroke-width:8; stroke-opacity:1; fill:none" points="361.147,926.898 365.091,915.349 376.803,900.505 395.927,884.737 421.882,869.075 453.879,854.319 490.947,841.173 531.959,830.302 575.668,822.42 620.747,818.731 2125.73,818.731 2157.46,820.067 2189.19,824.073 2220.92,830.75 2252.65,840.097 2284.38,852.116 2316.1,866.805 2347.83,884.166 2379.56,904.196 2411.29,926.898 "/>
<polyline clip-path="url(#clip272)" style="stroke:#000000; stroke-linecap:round; stroke-linejoin:round; stroke-width:8; stroke-opacity:1; fill:none" points="361.147,926.898 365.091,938.447 376.803,953.291 395.927,969.059 421.882,984.721 453.879,999.477 490.947,1012.62 531.959,1023.49 575.668,1031.38 620.747,1035.07 2125.73,1035.07 2157.46,1033.73 2189.19,1029.72 2220.92,1023.05 2252.65,1013.7 2284.38,1001.68 2316.1,986.991 2347.83,969.631 2379.56,949.6 2411.29,926.898 "/>
<polyline clip-path="url(#clip272)" style="stroke:#000000; stroke-linecap:round; stroke-linejoin:round; stroke-width:8; stroke-opacity:0.5; fill:none" points="1313.95,712.272 1488.75,712.272 "/>
<polyline clip-path="url(#clip272)" style="stroke:#000000; stroke-linecap:round; stroke-linejoin:round; stroke-width:8; stroke-opacity:0.5; fill:none" points="1313.95,1141.52 1488.75,1141.52 "/>
<polyline clip-path="url(#clip272)" style="stroke:#000000; stroke-linecap:round; stroke-linejoin:round; stroke-width:8; stroke-opacity:1; fill:none" points="2089.68,1035.07 2097.7,1032.35 2105.32,1024.35 2112.16,1011.47 2117.86,994.339 2122.16,973.83 2124.83,950.968 2125.73,926.898 "/>
<polyline clip-path="url(#clip272)" style="stroke:#000000; stroke-linecap:round; stroke-linejoin:round; stroke-width:8; stroke-opacity:1; fill:none" points="2089.68,818.731 2097.7,821.443 2105.32,829.443 2112.16,842.33 2117.86,859.457 2122.16,879.966 2124.83,902.829 2125.73,926.898 "/>
<polyline clip-path="url(#clip272)" style="stroke:#000000; stroke-linecap:round; stroke-linejoin:round; stroke-width:8; stroke-opacity:1; fill:none" points="1704.58,926.898 1705.88,950.02 1709.73,971.982 1715.91,991.684 1724.14,1008.14 1733.99,1020.52 1744.97,1028.2 1756.53,1030.81 2060.8,1030.81 2072.36,1028.2 2083.34,1020.52 2093.19,1008.14 2101.42,991.684 2107.61,971.982 2111.45,950.02 2112.75,926.898 "/>
<polyline clip-path="url(#clip272)" style="stroke:#000000; stroke-linecap:round; stroke-linejoin:round; stroke-width:8; stroke-opacity:1; fill:none" points="1704.58,926.898 1705.88,903.776 1709.73,881.814 1715.91,862.112 1724.14,845.659 1733.99,833.28 1744.97,825.595 1756.53,822.99 2060.8,822.99 2072.36,825.595 2083.34,833.28 2093.19,845.659 2101.42,862.112 2107.61,881.814 2111.45,903.776 2112.75,926.898 "/>
<path clip-path="url(#clip272)" d="M2143.13 926.898 L2197.16 942.025 L2272.79 942.025 L2359.23 926.898 L2359.23 926.898 L2272.79 911.772 L2197.16 911.772 L2143.13 926.898  Z" fill="#000000" fill-rule="evenodd" fill-opacity="0.8"/>
<polyline clip-path="url(#clip272)" style="stroke:#000000; stroke-linecap:round; stroke-linejoin:round; stroke-width:8; stroke-opacity:0.8; fill:none" points="2143.13,926.898 2197.16,942.025 2272.79,942.025 2359.23,926.898 "/>
<circle clip-path="url(#clip272)" cx="1462.52" cy="926.898" r="14.4" fill="#000000" fill-rule="evenodd" fill-opacity="1" stroke="none"/>
<polyline clip-path="url(#clip272)" style="stroke:#000000; stroke-linecap:round; stroke-linejoin:round; stroke-width:8; stroke-opacity:1; fill:none" points="361.147,926.898 361.147,926.898 "/>
<polyline clip-path="url(#clip272)" style="stroke:#000000; stroke-linecap:round; stroke-linejoin:round; stroke-width:8; stroke-opacity:1; fill:none" points="361.147,926.898 361.147,926.898 "/>
<polyline clip-path="url(#clip272)" style="stroke:#000000; stroke-linecap:round; stroke-linejoin:round; stroke-width:8; stroke-opacity:1; fill:none" points="1271.36,746.661 1271.36,677.884 1436.43,689.347 1436.43,735.198 1271.36,746.661 "/>
<polyline clip-path="url(#clip272)" style="stroke:#000000; stroke-linecap:round; stroke-linejoin:round; stroke-width:8; stroke-opacity:1; fill:none" points="1271.36,1107.14 1271.36,1175.91 1436.43,1164.45 1436.43,1118.6 1271.36,1107.14 "/>
<polyline clip-path="url(#clip272)" style="stroke:#000000; stroke-linecap:round; stroke-linejoin:round; stroke-width:8; stroke-opacity:1; fill:none" points="1278.84,926.898 1452.54,926.898 "/>
<line clip-path="url(#clip272)" x1="1278.84" y1="942.898" x2="1278.84" y2="910.898" style="stroke:#000000; stroke-width:4; stroke-opacity:1"/>
<line clip-path="url(#clip272)" x1="1452.54" y1="942.898" x2="1452.54" y2="910.898" style="stroke:#000000; stroke-width:4; stroke-opacity:1"/>
</svg>
