<?xml version="1.0" encoding="utf-8"?>
<svg xmlns="http://www.w3.org/2000/svg" xmlns:xlink="http://www.w3.org/1999/xlink" width="650" height="500" viewBox="0 0 2600 2000">
<defs>
  <clipPath id="clip990">
    <rect x="0" y="0" width="2600" height="2000"/>
  </clipPath>
</defs>
<path clip-path="url(#clip990)" d="M0 2000 L2600 2000 L2600 0 L0 0  Z" fill="#ffffff" fill-rule="evenodd" fill-opacity="1"/>
<defs>
  <clipPath id="clip991">
    <rect x="520" y="0" width="1821" height="1821"/>
  </clipPath>
</defs>
<path clip-path="url(#clip990)" d="M298.69 1759.31 L2505.51 1759.31 L2505.51 94.4882 L298.69 94.4882  Z" fill="#ffffff" fill-rule="evenodd" fill-opacity="1"/>
<defs>
  <clipPath id="clip992">
    <rect x="298" y="94" width="2208" height="1666"/>
  </clipPath>
</defs>
<path clip-path="url(#clip992)" d="M2080.29 959.884 L2080.29 959.884 L2283.58 1270.21 L2326.86 1270.21 L2253.41 959.884 L2253.41 959.884 L2253.41 893.912 L2253.41 893.912 L2326.86 583.589 L2283.58 583.589 L2080.29 893.912 L2080.29 893.912  Z" fill="#ffffff" fill-rule="evenodd" fill-opacity="0.8"/>
<polyline clip-path="url(#clip992)" style="stroke:#000000; stroke-linecap:round; stroke-linejoin:round; stroke-width:8; stroke-opacity:0.8; fill:none" points="2080.29,959.884 2080.29,959.884 2283.58,1270.21 2326.86,1270.21 2253.41,959.884 "/>
<polyline clip-path="url(#clip992)" style="stroke:#000000; stroke-linecap:round; stroke-linejoin:round; stroke-width:8; stroke-opacity:0.8; fill:none" points="2080.29,893.912 2080.29,893.912 2283.58,583.589 2326.86,583.589 2253.41,893.912 "/>
<polyline clip-path="url(#clip992)" style="stroke:#000000; stroke-linecap:round; stroke-linejoin:round; stroke-width:8; stroke-opacity:1; fill:none" points="1178.71,848.832 1281.06,703.09 1601.82,141.606 1666.96,141.606 1463.46,703.09 1439.28,848.832 "/>
<polyline clip-path="url(#clip992)" style="stroke:#000000; stroke-linecap:round; stroke-linejoin:round; stroke-width:8; stroke-opacity:1; fill:none" points="1178.71,1004.96 1281.06,1150.71 1601.82,1712.19 1666.96,1712.19 1463.46,1150.71 1439.28,1004.96 "/>
<path clip-path="url(#clip992)" d="M477.339 926.898 L481.348 940.764 L493.253 958.585 L512.693 977.517 L539.077 996.32 L571.602 1014.04 L609.282 1029.82 L650.971 1042.87 L695.402 1052.33 L741.225 1056.76 L1984.61 1056.76 L2016.86 1055.16 L2049.12 1050.35 L2081.37 1042.33 L2113.62 1031.11 L2145.87 1016.68 L2178.13 999.045 L2210.38 978.203 L2242.63 954.154 L2274.89 926.898 L2274.89 926.898 L2274.89 926.898 L2274.89 926.898 L2242.63 899.642 L2210.38 875.593 L2178.13 854.751 L2145.87 837.115 L2113.62 822.685 L2081.37 811.462 L2049.12 803.446 L2016.86 798.636 L1984.61 797.033 L741.225 797.033 L695.402 801.462 L650.971 810.925 L609.282 823.976 L571.602 839.76 L539.077 857.476 L512.693 876.28 L493.253 895.211 L481.348 913.032 L477.339 926.898  Z" fill="#ffffff" fill-rule="evenodd" fill-opacity="1"/>
<polyline clip-path="url(#clip992)" style="stroke:#ffffff; stroke-linecap:round; stroke-linejoin:round; stroke-width:8; stroke-opacity:1; fill:none" points="477.339,926.898 481.348,940.764 493.253,958.585 512.693,977.517 539.077,996.32 571.602,1014.04 609.282,1029.82 650.971,1042.87 695.402,1052.33 741.225,1056.76 1984.61,1056.76 2016.86,1055.16 2049.12,1050.35 2081.37,1042.33 2113.62,1031.11 2145.87,1016.68 2178.13,999.045 2210.38,978.203 2242.63,954.154 2274.89,926.898 "/>
<polyline clip-path="url(#clip992)" style="stroke:#000000; stroke-linecap:round; stroke-linejoin:round; stroke-width:8; stroke-opacity:1; fill:none" points="477.339,926.898 481.348,913.032 493.253,895.211 512.693,876.28 539.077,857.476 571.602,839.76 609.282,823.976 650.971,810.925 695.402,801.462 741.225,797.033 1984.61,797.033 2016.86,798.636 2049.12,803.446 2081.37,811.462 2113.62,822.685 2145.87,837.115 2178.13,854.751 2210.38,875.593 2242.63,899.642 2274.89,926.898 "/>
<polyline clip-path="url(#clip992)" style="stroke:#000000; stroke-linecap:round; stroke-linejoin:round; stroke-width:8; stroke-opacity:1; fill:none" points="477.339,926.898 481.348,940.764 493.253,958.585 512.693,977.517 539.077,996.32 571.602,1014.04 609.282,1029.82 650.971,1042.87 695.402,1052.33 741.225,1056.76 1984.61,1056.76 2016.86,1055.16 2049.12,1050.35 2081.37,1042.33 2113.62,1031.11 2145.87,1016.68 2178.13,999.045 2210.38,978.203 2242.63,954.154 2274.89,926.898 "/>
<polyline clip-path="url(#clip992)" style="stroke:#000000; stroke-linecap:round; stroke-linejoin:round; stroke-width:8; stroke-opacity:0.5; fill:none" points="1281.06,703.09 1463.46,703.09 "/>
<polyline clip-path="url(#clip992)" style="stroke:#000000; stroke-linecap:round; stroke-linejoin:round; stroke-width:8; stroke-opacity:0.5; fill:none" points="1281.06,1150.71 1463.46,1150.71 "/>
<polyline clip-path="url(#clip992)" style="stroke:#000000; stroke-linecap:round; stroke-linejoin:round; stroke-width:8; stroke-opacity:1; fill:none" points="1941.32,1056.76 1950.96,1053.51 1960.1,1043.9 1968.31,1028.43 1975.17,1007.87 1980.32,983.244 1983.53,955.796 1984.61,926.898 "/>
<polyline clip-path="url(#clip992)" style="stroke:#000000; stroke-linecap:round; stroke-linejoin:round; stroke-width:8; stroke-opacity:1; fill:none" points="1941.32,797.033 1950.96,800.289 1960.1,809.894 1968.31,825.366 1975.17,845.929 1980.32,870.552 1983.53,898 1984.61,926.898 "/>
<polyline clip-path="url(#clip992)" style="stroke:#000000; stroke-linecap:round; stroke-linejoin:round; stroke-width:8; stroke-opacity:1; fill:none" points="1645.03,926.898 1646.61,954.833 1651.25,981.366 1658.73,1005.17 1668.67,1025.05 1680.57,1040 1693.83,1049.29 1707.8,1052.43 1908.65,1052.43 1922.62,1049.29 1935.88,1040 1947.78,1025.05 1957.72,1005.17 1965.2,981.366 1969.84,954.833 1971.42,926.898 "/>
<polyline clip-path="url(#clip992)" style="stroke:#000000; stroke-linecap:round; stroke-linejoin:round; stroke-width:8; stroke-opacity:1; fill:none" points="1645.03,926.898 1646.61,898.964 1651.25,872.43 1658.73,848.628 1668.67,828.75 1680.57,813.794 1693.83,804.509 1707.8,801.362 1908.65,801.362 1922.62,804.509 1935.88,813.794 1947.78,828.75 1957.72,848.628 1965.2,872.43 1969.84,898.964 1971.42,926.898 "/>
<path clip-path="url(#clip992)" d="M1991.98 926.898 L2053.34 944.081 L2139.26 944.081 L2237.45 926.898 L2237.45 926.898 L2139.26 909.715 L2053.34 909.715 L1991.98 926.898  Z" fill="#000000" fill-rule="evenodd" fill-opacity="0.8"/>
<polyline clip-path="url(#clip992)" style="stroke:#000000; stroke-linecap:round; stroke-linejoin:round; stroke-width:8; stroke-opacity:0.8; fill:none" points="1991.98,926.898 2053.34,944.081 2139.26,944.081 2237.45,926.898 "/>
<circle clip-path="url(#clip992)" cx="1439.5" cy="926.898" r="14.4" fill="#000000" fill-rule="evenodd" fill-opacity="1" stroke="none"/>
<polyline clip-path="url(#clip992)" style="stroke:#000000; stroke-linecap:round; stroke-linejoin:round; stroke-width:8; stroke-opacity:1; fill:none" points="477.339,926.898 477.339,926.898 "/>
<polyline clip-path="url(#clip992)" style="stroke:#000000; stroke-linecap:round; stroke-linejoin:round; stroke-width:8; stroke-opacity:1; fill:none" points="477.339,926.898 477.339,926.898 "/>
<polyline clip-path="url(#clip992)" style="stroke:#000000; stroke-linecap:round; stroke-linejoin:round; stroke-width:8; stroke-opacity:1; fill:none" points="1237.77,739.347 1237.77,666.832 1411.81,678.918 1411.81,727.262 1237.77,739.347 "/>
<polyline clip-path="url(#clip992)" style="stroke:#000000; stroke-linecap:round; stroke-linejoin:round; stroke-width:8; stroke-opacity:1; fill:none" points="1237.77,1114.45 1237.77,1186.96 1411.81,1174.88 1411.81,1126.53 1237.77,1114.45 "/>
<polyline clip-path="url(#clip992)" style="stroke:#000000; stroke-linecap:round; stroke-linejoin:round; stroke-width:8; stroke-opacity:1; fill:none" points="1287.57,926.898 1428.94,926.898 "/>
<line clip-path="url(#clip992)" x1="1287.57" y1="942.898" x2="1287.57" y2="910.898" style="stroke:#000000; stroke-width:4; stroke-opacity:1"/>
<line clip-path="url(#clip992)" x1="1428.94" y1="942.898" x2="1428.94" y2="910.898" style="stroke:#000000; stroke-width:4; stroke-opacity:1"/>
</svg>
